<?xml version="1.0" encoding="utf-8"?>
<!-- Generator: Adobe Illustrator 16.0.0, SVG Export Plug-In . SVG Version: 6.00 Build 0)  -->
<!DOCTYPE svg PUBLIC "-//W3C//DTD SVG 1.1//EN" "http://www.w3.org/Graphics/SVG/1.1/DTD/svg11.dtd">
<svg version="1.1" id="Layer_1" xmlns="http://www.w3.org/2000/svg" xmlns:xlink="http://www.w3.org/1999/xlink" x="0px" y="0px"
	 width="200px" height="200px" viewBox="0 0 200 200" enable-background="new 0 0 200 200" xml:space="preserve">
<g>
	<g>
		<path fill="#F79421" d="M114.16,125.327c-1.089,3.153-2.068,5.765-1.851,7.18c0.218,1.414,1.819,2.938,0.909,3.917
			c-0.909,0.979-0.582-1.089-1.67-0.979c-1.089,0.109-1.524,0.419-2.721,1.242c-1.197,0.825-8.377,1.587-9.9,1.913
			c-1.522,0.327-3.047-1.196-4.244-0.87c-1.196,0.325-3.481-0.653-0.652-1.088c2.828-0.435,4.141,0.217,7.02-0.218
			c2.88-0.437,7.341-1.089,7.45-1.524c0.107-0.434-0.652-0.761,0.218-2.393s2.284-8.159,2.284-8.159L114.16,125.327z"/>
		<path fill="#F79421" d="M105.781,124.348c-0.217,2.064-0.543,3.699-1.197,5.331c-0.652,1.632-1.684,3.698-1.167,4.678
			c0.515,0.979,1.386,3.791,1.93,4.289c0.543,0.497,0.543,1.26-0.326,0.824c-0.87-0.436-1.632-1.647-2.176-0.824
			c-0.545,0.824-0.862,1.804-1.793,1.913c-0.927,0.108-1.689-0.436-2.342,0c-0.653,0.435-11.642,2.066-12.512,1.414
			c-0.869-0.653-0.544-1.306,1.197-1.414c1.74-0.109,1.74-0.109,1.74-0.109s-3.482-0.218-2.938-0.87
			c0.544-0.652,1.958-0.437,4.243-0.437c2.285,0,7.41,0.178,8.161-1.196c0.751-1.371,1.965-4.306,2.45-6.45s0.378-5.192,0.921-7.148
			C102.518,122.389,105.781,124.348,105.781,124.348z"/>
		<path fill="#377D5B" d="M58.563,61.024c1.413-4.242,1.74-9.792,11.314-10.009c9.574-0.218,12.404,11.206,15.341,19.583
			c0.36,1.028,0.663,1.999,0.93,2.913c0.276,0.948-14.257,1.312-14.236,0.379c0.018-0.784-0.003-1.488-0.076-2.095
			c-0.435-3.59,0.762-4.57-1.415-4.678c-2.175-0.108-4.786,0.217-7.072-1.305C61.064,64.289,58.563,61.024,58.563,61.024z"/>
		<circle fill="#010101" cx="67.484" cy="57" r="1.088"/>
		<path fill="#9E6638" d="M77.276,74.278c2.749-0.086,7.122,0.696,9.111,0.072c0.515,1.85,0.897,3.449,1.334,4.818
			c-0.988,1.552-0.022,3.864,0,5.677c0.029,2.611,0.298,8.407-1.334,11.128s-3.349,7.378-4.078,9.88
			c-0.558,1.917-2.952,4.699-3.463,7.482c-0.553-0.519-1.081-1.054-1.57-1.61c-6.31-7.181-7.071-15.337-6.745-22.356
			c0.253-5.456,1.161-10.868,1.35-14.7C72.987,74.951,74.988,74.351,77.276,74.278z"/>
		<path fill="#F3F3F3" d="M85.896,72.671c0.178,0.58,0.34,1.142,0.491,1.68c-1.989,0.624-6.362,0.842-9.111,0.928
			c-2.288,0.072-4.289-0.327-5.396-0.609c0.028-0.563,0.04-1.093,0.033-1.584c1.695,0.197,5.062,0.28,7.213,0.453
			C81.251,73.708,84.219,73.204,85.896,72.671z"/>
		<path fill="#CDCCCC" d="M79.092,104.871c0.729-2.502,3.08-7.941,4.712-10.662s1.958-7.616,1.93-10.228
			c-0.022-1.812,0.999-3.261,1.987-4.812c0.985,3.08,2.253,4.97,5.983,5.792c6.42,1.414,13.709-1.089,30.463,7.942
			c2.815,1.516,5.325,2.944,7.579,4.28c0.205,0.862,8.636,21.727,13.077,23.036c-2.749,1.314-15.002,5.541-17.609,5.432
			c-2.611-0.107-7.725,1.959-10.01,2.068c-2.283,0.108-6.963-1.308-8.596-1.632c-1.631-0.327-1.764-0.968-4.352-0.544
			c-2.586,0.424-4.351-1.524-6.418-2.067c-1.908-0.503-12.421-3.969-18.994-10.141C79.357,110.553,78.534,106.788,79.092,104.871z"
			/>
		<path fill="#F3F3F3" d="M92.073,88.334c2.938-1.415,10.227-0.87,15.231,0s20.891,9.357,23.719,10.444
			c2.828,1.088,12.186,11.751,12.512,12.947c0.326,1.197-12.077,0.545-15.994,0c-3.916-0.545-9.145-6.436-14.578-9.683
			c-1.455-0.871-15.777-6.42-20.288-7.943C88.163,92.577,89.135,89.748,92.073,88.334z"/>
		<path fill="#010101" d="M115.139,111.072c-2.502-0.76-2.611-2.066-1.851-2.61c0.762-0.544-1.607-2.285-1.413-4.569
			c0.084-1,0.178-1.708,0.348-2.215c0.35,0.158,0.602,0.283,0.74,0.365c3.532,2.111,6.979,5.341,10.033,7.489l0,0
			C120.797,111.181,117.641,111.834,115.139,111.072z"/>
		<path fill="#010101" d="M132.85,112.196c4.958,0.299,10.912,0.363,10.686-0.471c-0.278-1.016-7.063-8.854-10.838-11.863
			c-0.374-0.874-0.745-1.816-0.95-2.679c11.174,6.616,15.945,10.898,18.751,11.713c3.374,0.979,11.099,3.592,10.119,4.461
			c-0.98,0.87-0.98,2.503-5.005,3.373c-4.026,0.87-8.052,2.177-10.771,3.481c-0.007,0.003-0.013,0.005-0.018,0.008
			C140.383,118.91,134.997,116.049,132.85,112.196z"/>
		<path fill="#F3F3F3" d="M157.354,114.555c-3.475-0.315-9.356-1.088-12.187-1.088c-2.829,0-9.217-0.774-10.01,0
			c-0.794,0.775,1.415,1.415,4.462,2.066c3.046,0.652,10.562,1.227,12.402,1.415S160.932,114.88,157.354,114.555z"/>
		<path fill="#F79421" d="M61.5,59.176c0.591,0.354-0.544,2.72,0,3.698c0.544,0.98,2.39,0.977,2.503,2.177
			c0.112,1.2-0.836,1.305-2.704,2.067c-1.866,0.761-4.586,3.264-7.742,3.48c-3.154,0.219-4.352-1.196-1.85-2.72
			c2.503-1.523,5.332-4.024,6.093-5.439c0.762-1.415,0.762-1.415,0.762-1.415s1.196,0,1.631-0.652
			C60.629,59.719,60.956,58.85,61.5,59.176z"/>
		
			<ellipse transform="matrix(-0.9355 -0.3534 0.3534 -0.9355 91.9425 144.6883)" fill="#010101" cx="59.181" cy="63.95" rx="0.47" ry="0.959"/>
	</g>
	<path opacity="0.2" fill="#010101" d="M153.149,109.723c-13.51,7.119-29.371,11.481-44.423,8.267
		c-0.346,0.06-0.726,0.046-1.141-0.078c-6.978-2.084-13.621-1.974-19.604-6.644c-0.5-0.391-0.757-0.84-0.838-1.296
		c-0.661-0.527-1.312-1.075-1.933-1.664c-4.716-3.105-9.172-6.205-8.922-13.035c0.164-4.488,4.188-7.556,6.03-11.312
		c2.652-5.41,3.108-10.998,1.519-16.795c-0.083-0.305-0.099-0.586-0.083-0.854c-2.104-6.125-4.68-12.55-9.899-14.615
		c2.87,2.916,4.031,6.939,0.466,10.276c-3.22,3.015-8.357,3.148-12.6,1.453c-2.991,3.648-7.429,6.546-11.332,6.201
		c0.173,0.674,1.337,1.099,3.167,0.972c3.155-0.217,5.875-2.72,7.742-3.48c1.184-0.483,1.996-0.704,2.404-1.105
		c2.2,1.271,4.653,1.003,6.718,1.105c2.177,0.107,0.98,1.088,1.415,4.678c0.063,0.526,0.082,1.138,0.075,1.8
		c-0.003,0.344-0.012,0.697-0.031,1.073c-0.188,3.832-1.096,9.244-1.35,14.7c-0.326,7.02,0.435,15.176,6.745,22.356
		c0.489,0.557,1.017,1.092,1.57,1.61c6.572,6.172,17.086,9.638,18.994,10.141c0.817,0.215,1.59,0.644,2.383,1.062
		c0.94-0.027,1.829,0.45,2.131,1.587c0.344,0.318,0.612,0.734,0.807,1.21c1.381,3.362-0.771,6.939-1.938,10.151
		c-0.083,0.524-0.259,1.025-0.564,1.525c-0.911,1.494-2.788,1.45-3.868,0.531c-0.118,0.045-0.242,0.087-0.376,0.118
		c-2.077,0.487-4.492,0.015-6.677,0.166c-0.559,0.178-1.129,0.354-1.712,0.514c0.599,0.076,1.11,0.108,1.11,0.108s0,0-1.74,0.109
		c-0.207,0.013-0.39,0.034-0.557,0.062c-0.06,0.012-0.113,0.03-0.173,0.041c-0.006,0.001-0.012,0-0.019,0.001
		c-1.053,0.23-1.17,0.768-0.448,1.311c0.87,0.652,11.858-0.979,12.512-1.414c0.653-0.436,1.415,0.108,2.342,0
		c0.931-0.109,1.248-1.089,1.793-1.913c0.544-0.823,1.306,0.389,2.176,0.824c0.869,0.436,0.869-0.327,0.326-0.824
		c-0.159-0.146-0.349-0.504-0.548-0.944c1.838-0.305,3.506-0.654,4.029-1.015c1.196-0.823,1.632-1.133,2.721-1.242
		c1.088-0.109,0.761,1.959,1.67,0.979c0.91-0.979-0.691-2.503-0.909-3.917c-0.172-1.114,0.403-2.979,1.186-5.258
		c1.39,0.295,2.759,0.516,3.71,0.471c2.285-0.109,7.398-2.176,10.01-2.068c2.607,0.109,14.86-4.117,17.609-5.432
		c0.005-0.003,0.011-0.005,0.018-0.008c2.719-1.305,6.744-2.611,10.771-3.481c4.024-0.87,4.024-2.503,5.005-3.373
		C161.387,112.675,156.794,110.921,153.149,109.723z M111.41,129.665c-0.116,0.45-0.256,0.912-0.41,1.374v0.628
		c0.062,0.131,0.119,0.267,0.16,0.418c0.314,1.145-0.342,2.708-1.578,3.026c-0.01,0.006-0.02,0.013-0.029,0.019
		c-0.369,0.226-0.795,0.323-1.221,0.327c-0.183,0.158-0.367,0.315-0.57,0.451c-0.817,0.551-1.891,0.416-2.674-0.119
		c-0.326,0.057-0.66,0.112-1,0.167c-0.248-0.643-0.483-1.243-0.671-1.6c-0.517-0.979,0.515-3.046,1.167-4.678
		c0.537-1.339,0.848-2.694,1.063-4.272c1.324-0.018,1.69,0.427,2.962,0.682c0.442,0.088,1.111,0.257,1.892,0.452
		c-0.036,0.15-0.075,0.312-0.114,0.471C111.195,127.529,111.723,128.461,111.41,129.665z"/>
	<path opacity="0.2" fill="#010101" d="M140.992,108.335c-0.212-0.25-0.436-0.509-0.665-0.772
		C140.557,107.826,140.78,108.085,140.992,108.335z"/>
	<path opacity="0.2" fill="#010101" d="M139.8,106.963c-0.146-0.166-0.291-0.329-0.441-0.497
		C139.509,106.634,139.653,106.797,139.8,106.963z"/>
	<path opacity="0.2" fill="#010101" d="M138.879,105.936c-0.146-0.161-0.293-0.322-0.442-0.484
		C138.586,105.613,138.732,105.774,138.879,105.936z"/>
	<path opacity="0.2" fill="#010101" d="M137.938,104.913c-0.15-0.161-0.302-0.321-0.453-0.481
		C137.637,104.593,137.786,104.752,137.938,104.913z"/>
	<path opacity="0.2" fill="#010101" d="M136.976,103.898c-0.153-0.16-0.306-0.316-0.459-0.473
		C136.67,103.582,136.822,103.738,136.976,103.898z"/>
	<path opacity="0.2" fill="#010101" d="M136.013,102.913c-0.163-0.164-0.323-0.321-0.484-0.48
		C135.689,102.592,135.85,102.749,136.013,102.913z"/>
	<path opacity="0.2" fill="#010101" d="M132.948,100.071c-0.036-0.029-0.069-0.055-0.104-0.083c0-0.002-0.001-0.004-0.002-0.005
		C132.877,100.011,132.913,100.043,132.948,100.071z"/>
	<path opacity="0.2" fill="#010101" d="M134.813,101.74c-0.202-0.192-0.404-0.386-0.6-0.565
		C134.409,101.354,134.611,101.548,134.813,101.74z"/>
	<path opacity="0.2" fill="#010101" d="M133.788,100.794c-0.147-0.132-0.295-0.265-0.438-0.387
		C133.493,100.529,133.641,100.662,133.788,100.794z"/>
</g>
</svg>
