<?xml version="1.0" encoding="utf-8"?>
<!-- Generator: Adobe Illustrator 16.0.0, SVG Export Plug-In . SVG Version: 6.00 Build 0)  -->
<!DOCTYPE svg PUBLIC "-//W3C//DTD SVG 1.1//EN" "http://www.w3.org/Graphics/SVG/1.1/DTD/svg11.dtd">
<svg version="1.1" id="Layer_1" xmlns="http://www.w3.org/2000/svg" xmlns:xlink="http://www.w3.org/1999/xlink" x="0px" y="0px"
	 width="200px" height="200px" viewBox="0 0 200 200" enable-background="new 0 0 200 200" xml:space="preserve">
<g>
	<g>
		<path fill="#CDCCCC" d="M51.848,52.959c-2.625,0.154-3.859-0.308-7.101,0c-3.24,0.309-3.548,2.161-3.548,2.161
			s2.777,3.085,5.322,3.085c2.547,0,4.245-1.651,5.326-2.677C52.927,54.502,51.848,52.959,51.848,52.959z"/>
		<path fill="#F3F3F3" d="M52.326,50.8c-1.405,1.387-3.549,9.567-5.563,10.339c-2.016,0.771-1.397,3.085-1.553,3.548
			c-0.153,0.463-1.852,2.469-1.387,3.241c0.463,0.772,1.56,2.777,2.939,3.703c1.381,0.926,4.774,0.926,6.318,0
			c1.543-0.926,4.167-1.08,5.246-1.08c1.08,0,7.871-10.03,8.95-10.494c1.079-0.463,3.395-5.31,0-7.206
			c-3.395-1.897-15.43-2.051-15.43-2.051H52.326z"/>
		<path fill="#CDCCCC" d="M77,111.906c2.776,5.709,5.092,12.345,5.399,15.277c0.31,2.932,0.463,7.716-0.924,8.795
			c-1.389,1.08-1.335,3.858-1.671,5.401c-0.337,1.545,0,1.545,0,1.545h7.224c0,0,2.934-4.632,2.317-8.489
			c-0.619-3.856-2.625-15.431-4.014-18.516C83.943,112.833,77,111.906,77,111.906z"/>
		<path fill="#CDCCCC" d="M151.531,120.549c2.778,2.932,5.71,8.486,5.093,11.109c-0.616,2.623-0.616,6.174-0.771,8.179
			c-0.153,2.006-2.231,6.328-1.731,7.716c0.497,1.388,6.053,0,6.053,0s0.771-8.795,1.233-10.956s-1.079-8.023,0-9.183
			c1.08-1.156,0.95-5.322,0.09-7.638c-0.86-2.314-3.021-4.012-3.021-6.789s2.623-10.493,0.616-11.573
			c-2.005-1.082-12.036,5.247-11.109,9.721C148.908,115.61,151.531,120.549,151.531,120.549z"/>
		<path fill="#F3F3F3" d="M80.702,114.375c2.469,3.395,4.014,6.481,4.939,9.259c0.924,2.778,2.778,8.488,2.468,11.111
			c-0.31,2.623-1.234,3.087-1.544,4.937c-0.308,1.854,0.31,4.322,0.31,4.322h5.246c0,0-0.926-3.241,0-3.859
			c0.928-0.616,2.315-1.39,1.698-4.166c-0.616-2.776-2.624-10.185-3.086-13.271c-0.463-3.085-0.925-7.87-0.463-9.413
			C90.733,111.752,80.702,114.375,80.702,114.375z"/>
		<path fill="#F3F3F3" d="M145.051,132.276c-1.716,4.468-4.166,10.338-5.401,12.653c-1.235,2.314-2.007,4.784-1.852,5.245
			c0.154,0.464,7.253,0,7.253,0s0.771-4.166,1.697-4.166c0.927,0,0.496,0.464,1.175-2.005c0.677-2.469,1.757-8.333,2.683-10.338
			C151.531,131.658,145.44,131.261,145.051,132.276z"/>
		<path fill="#FFF3C0" d="M166.655,79.81c-2.161-5.247-5.981-15.123-15.953-15.894c-9.972-0.772-23.553-2.546-32.81-2.354
			c-9.26,0.193-23.302-0.116-25.617-1.042c-2.313-0.927-5.71-1.852-10.029-2.315c-4.32-0.463-6.637-3.148-7.408-5.354
			c-0.771-2.206-5.555-6.064-9.411-7.299c-3.858-1.233-9.877-2.161-11.729,1.543c-1.284,2.568-4.616,1.525-4.167,3.704
			c0.451,2.177,0.807,1.943,2.795,2.051c1.989,0.108,3.842,0.108,5.384,1.034c1.543,0.927,3.548-1.296,4.629-1.034
			s4.167,4.429,3.704,5.354s-5.4,3.396-5.709,6.018c-0.311,2.625-2.338,6.161-3.935,6.448c-1.597,0.289-6.531,1.654-6.538,1.654
			c-0.008-0.001-0.639,1.157,0.751,4.089c1.389,2.933,4.63,4.012,5.787,6.943c1.156,2.934,3.471,7.716,4.088,10.958
			c0.618,3.24,0.771,6.327,2.778,8.488c2.007,2.16,5.864,3.24,7.099,5.246c1.233,2.005,3.394,3.038,4.937,4.76
			c1.545,1.721,1.817,3.297,3.456,2.972c1.637-0.324,3.412-0.039,5.34,1.064c1.93,1.101,5.865,2.159,7.254,0
			c1.39-2.161,1.231-4.169,2.621-4.939c1.391-0.771,3.397-0.972,7.099,0.903c3.704,1.875,10.031,2.801,15.433,1.565
			c5.4-1.234,12.809-5.093,14.969-4.628c2.16,0.463,7.406,3.701,9.566,6.789c2.161,3.087,4.629,6.635,4.013,9.412
			c-0.617,2.778-0.926,6.174-2.005,7.562c-1.081,1.39-1.814,3.074,0.326,3.004c2.142-0.071,4.617-3.203,5.69-2.387
			c1.073,0.817,2.778-0.617,3.857-3.702c1.08-3.088,3.241-7.099,2.779-11.42c-0.464-4.32-1.415-7.253,0.062-9.104
			c1.479-1.852,5.339-6.636,6.418-10.803s0.616-10.493,2.005-12.037C165.573,85.519,168.814,85.057,166.655,79.81z"/>
		<path fill="#F3F3F3" d="M65.889,55.529c0.281-1.587,4.783-1.334,5.94-0.332c1.158,1.003-0.127,3.806-2.006,4.012
			C67.944,59.417,65.735,56.4,65.889,55.529z"/>
		<path fill="#010101" d="M57.864,59.22c-1.411,0.448,2.47-2.867,3.086-3.097c0.618-0.232,2.624,0.617,2.777,1.156
			c0.155,0.541-1.157,0.078-2.236,0C60.41,57.203,58.559,58.998,57.864,59.22z"/>
		<path fill="#F7A7B5" d="M45.596,65.073c0.864,0,0.618,1.929,0,1.465C44.979,66.075,45.058,65.073,45.596,65.073z"/>
		<path fill="#F7A7B5" d="M47.062,66.61c-0.888-0.625,1.39-1.46,1.93-1.538c0.54-0.077,1.312-0.771,1.235,0
			c-0.078,0.772-0.766,1.002-1.581,1.234C47.834,66.538,47.603,66.99,47.062,66.61z"/>
		<path fill="none" stroke="#010101" stroke-linecap="round" stroke-miterlimit="10" d="M45.163,69.471
			c1.668,0.54,4.214,0.077,5.449,0c1.235-0.077,2.393-0.54,2.623-1.698"/>
		<path fill="#EADDA9" d="M82.601,99.956c-0.528-0.411-0.917-0.542-1.588-0.42c-0.536,0.099-1.012,0.629-1.14,1.141
			c-0.008,0.032-0.009,0.038-0.014,0.061c-0.102,0.001-0.217-0.008-0.336-0.029c-0.637-0.116-1.31-0.463-1.816-0.861
			c-0.829-0.652-2.235,0.179-1.57,1.212c0.758,1.179,1.832,2.062,3.143,2.557c1.697,0.641,3.138-0.622,3.741-2.071
			C83.217,101.072,83.004,100.271,82.601,99.956z"/>
		<path fill="#EADDA9" d="M91.689,97.024c-0.937,1.92-2.919,1.751-4.646,0.933c-1.086-0.515-2.181,0.768-1.307,1.693
			c2.644,2.8,6.979,2.587,8.907-0.899C95.721,96.805,92.649,95.058,91.689,97.024z"/>
		<path fill="#EADDA9" d="M89.028,102.474c-1.174,0.277-1.441,1.348-2.218,2.092c-0.671,0.643-2.455-0.474-3.151-0.694
			c-1.24-0.394-1.963,1.181-1.193,2.05c1.323,1.495,3.363,2.398,5.34,2.086c1.458-0.229,3.031-2.062,3.394-3.362
			C91.571,103.311,90.32,102.169,89.028,102.474z"/>
		<path fill="#EADDA9" d="M101.752,101.422c-0.414-1.03-1.781-1.105-2.17,0c-0.124,0.353-0.22,0.679-0.472,0.915
			c-0.041,0.038-0.56,0.087-0.692,0.09c-0.205,0.005-0.566-0.087-0.78-0.196c-0.548-0.28-0.983-0.714-1.805-0.739
			c-0.855-0.026-1.557,0.73-1.562,1.562c-0.016,2.38,3.171,2.929,4.961,2.656C101.107,105.426,102.458,103.177,101.752,101.422z"/>
		<path fill="#EADDA9" d="M104.635,93.977c-0.699,0.461-2.824,1.645-3.541,0.983c-1.237-1.142-3.493,0.388-2.43,1.874
			c1.824,2.552,6.121,0.924,7.414-1.414C106.566,94.535,105.553,93.372,104.635,93.977z"/>
		<path fill="#EADDA9" d="M138.549,102.855c-0.779,0.294-1.48,0.789-2.34,0.775c-0.26-0.005-0.368-0.094-0.519-0.242
			c-0.052-0.052-0.171-0.362-0.198-0.428c-0.179-0.422-0.695-0.693-1.114-0.778c-0.465-0.095-1.058-0.035-1.384,0.365
			c-0.021,0.028-0.044,0.056-0.066,0.083c-0.493,0.607-0.613,1.262-0.255,1.979c1.431,2.865,6.164,2.713,7.192-0.438
			C140.104,103.438,139.308,102.569,138.549,102.855z"/>
		<path fill="#EADDA9" d="M120.773,101.791c0.042-0.135-0.042,0.009-0.055,0.062c-0.021,0.012-0.028,0.022-0.061,0.033
			c-0.149,0.048-0.51,0.055-0.743,0.009c-0.454-0.09-1.311-0.411-1.353-1.008c-0.097-1.389-1.973-1.346-2.125,0
			c-0.474,4.188,5.997,5.788,7.455,1.763C124.599,100.7,121.4,99.794,120.773,101.791z"/>
		<path fill="#EADDA9" d="M128.023,96.146c-0.004,0.012-0.035,0.086-0.064,0.157c-0.224,0.07-0.441,0.086-0.645,0.053
			c-0.456-0.073-1.319-0.294-1.502-0.738c-0.444-1.081-1.858-0.896-1.995,0.27c-0.208,1.772,1.498,3.044,3.074,3.325
			c1.974,0.351,3.858-0.552,4.14-2.659C131.265,94.799,128.479,94.539,128.023,96.146z"/>
		<path fill="#EADDA9" d="M111.04,105.761c-0.032,0.034-0.29,0.333-0.373,0.432c-0.055,0.053-0.122,0.086-0.145,0.096
			c-0.212,0.068-0.395,0.054-0.74-0.021c-0.558-0.12-1.229-0.554-1.235-1.213c-0.013-1.224-1.672-1.37-2.057-0.278
			c-1.44,4.097,5.759,6.727,7.214,2.536C114.229,105.797,112.1,104.616,111.04,105.761z"/>
		<path fill="#EADDA9" d="M152.938,97.173c-0.609-1.076-2.319-0.35-1.984,0.837c-0.055-0.194-0.009-0.062-0.218,0.129
			c-0.157,0.145-0.483,0.249-0.708,0.321c-0.606,0.194-1.277,0.257-1.723-0.21c-1.434-1.505-3.781,0.844-2.275,2.275
			c1.493,1.421,3.552,1.433,5.334,0.583C152.885,100.384,153.811,98.715,152.938,97.173z"/>
		<path fill="#EADDA9" d="M149.946,109.268c-0.917-0.252-1.777,0.306-2.066,1.174c0.007-0.021-0.031,0.077-0.069,0.183
			c-0.084-0.021-0.168-0.043-0.251-0.071c-0.545-0.168-1.263-0.54-1.753-0.972c-0.857-0.754-2.172-0.033-1.906,1.109
			c0.354,1.531,1.789,2.776,3.284,3.147c2.102,0.521,3.74-0.913,3.995-2.95C151.271,110.159,150.6,109.447,149.946,109.268z"/>
		<path fill="#EADDA9" d="M94.91,89.97c-0.067,0.188,0.042,0.077-0.214,0.237c-0.19,0.118-0.41,0.134-0.648,0.138
			c-0.718,0.012-1.116-0.405-1.63-0.875c-0.638-0.585-1.874-0.225-1.813,0.751c0.239,3.864,6.337,4.141,7.408,0.605
			C98.62,88.818,95.599,88.042,94.91,89.97z"/>
		<path fill="#EADDA9" d="M80.04,108.101c-0.081-0.498-0.598-0.748-1.04-0.791c-0.545-0.053-1.075,0.277-1.638,0.276
			c-0.504-0.001-0.921-0.265-1.225-0.503c-0.688-0.542-1.601-0.676-2.275,0c-0.637,0.636-0.599,1.635,0,2.275
			c0.852,0.912,2.293,1.25,3.5,1.171C78.664,110.443,80.286,109.62,80.04,108.101z"/>
		<path fill="#EADDA9" d="M111.516,97.021c-0.104,0.233-0.266,0.696-0.34,0.792c-0.007,0.009-0.257,0.216-0.268,0.241
			c-0.098,0.048-0.291,0.144-0.233,0.133c-0.117,0.034-0.126,0.006-0.337-0.055c-0.335-0.095-0.623-0.405-0.93-0.563
			c-0.902-0.463-1.901,0.289-1.675,1.288c0.343,1.515,1.971,2.446,3.434,2.475c1.678,0.032,3.112-1.433,3.49-2.986
			C115.102,96.523,112.338,95.182,111.516,97.021z"/>
		<path fill="#EADDA9" d="M139.692,94.23c-0.098,0.204,0.085,0.094-0.114,0.171c-0.366,0.142-0.696,0.158-1.089,0.15
			c-0.412-0.01-0.803-0.095-1.194-0.219c-0.164-0.052-0.315-0.158-0.464-0.243c-0.105-0.061-0.476-0.43-0.22-0.088
			c-0.834-1.116-2.523-0.185-1.889,1.104c0.737,1.496,2.111,2.32,3.767,2.516c1.539,0.183,3.259-0.28,4.034-1.735
			C143.524,94.008,140.601,92.341,139.692,94.23z"/>
		<path fill="#EADDA9" d="M129.31,105.631c-0.027-0.043-0.055-0.085-0.082-0.128c-0.26-0.406-0.722-0.735-1.228-0.704
			c-0.813,0.051-1.287,0.372-1.702,1.062c-0.155,0.258-0.424,0.417-0.697,0.506c-0.748,0.241-1.61-0.126-2.312-0.36
			c-0.94-0.315-1.665,0.803-1.227,1.595c1.604,2.898,5.683,2.211,7.247-0.291C129.612,106.825,129.62,106.115,129.31,105.631z"/>
		<path fill="#EADDA9" d="M104.946,108.5c-0.394,0.426-0.804,0.522-1.407,0.499c-0.677-0.026-0.939-0.607-1.399-1.085
			c-0.579-0.601-1.715-0.333-1.906,0.503c-0.384,1.674,1.007,3.104,2.486,3.627c1.632,0.577,3.451,0.1,4.668-1.103
			C108.977,109.372,106.457,106.866,104.946,108.5z"/>
		<path fill="#EADDA9" d="M152.366,118.021c-0.697-0.697-1.688-0.591-2.398,0c0.229-0.19-0.176,0.091-0.197,0.103
			c-0.018,0.01-0.022,0.013-0.037,0.021c-0.021,0.003-0.056,0.01-0.126,0.031c-0.017,0.005-0.021,0.008-0.035,0.012
			c-0.022-0.002-0.052-0.004-0.1-0.003c-0.032,0.001-0.167-0.012-0.234-0.015c-0.033-0.031-0.148-0.105-0.076-0.011
			c-0.188-0.245-0.284-0.529-0.438-0.792c-0.37-0.632-1.432-0.71-1.781,0c-0.679,1.378,0.089,2.769,1.232,3.588
			c1.327,0.949,3.05,0.38,4.191-0.535C153.088,119.84,152.966,118.622,152.366,118.021z"/>
		<path fill="#EADDA9" d="M154.501,102.227c-0.662,1.379-2.079,1.521-3.111,0.438c-1.014-1.062-2.638,0.29-1.976,1.524
			c1.829,3.416,6.44,3.271,8.215-0.134C158.714,101.974,155.504,100.135,154.501,102.227z"/>
		<path fill="#EADDA9" d="M141.547,99.441c-0.029,0.121-0.062,0.241-0.093,0.361c-0.057,0.002-0.114-0.001-0.172-0.003
			c0.083-0.005-0.272-0.054-0.295-0.059c-0.269-0.061-0.234-0.067-0.4-0.147c-0.31-0.149-0.539-0.311-0.78-0.513
			c-0.658-0.552-2.088-0.29-1.947,0.807c0.201,1.567,1.487,2.821,3.066,3.036c2.073,0.282,3.672-0.951,3.921-3.036
			C145.074,97.982,141.991,97.636,141.547,99.441z"/>
		<path fill="#EADDA9" d="M119.568,92.687c-0.026,0.082-0.085,0.154-0.122,0.196c-0.039,0.008-0.144,0.057-0.126,0.072
			c-0.117-0.003-0.393-0.004-0.296,0.011c-0.747-0.122-1.37-0.506-1.862-1.075c-0.947-1.094-2.325,0.299-1.841,1.42
			c1.369,3.171,6.097,3.851,7.335,0.226C123.324,91.583,120.211,90.731,119.568,92.687z"/>
		<path fill="#EADDA9" d="M152.529,90.471c-0.464-0.12-0.96-0.062-1.376,0.182c-0.088,0.068-0.176,0.135-0.264,0.203
			c-0.003,0.002-0.004,0.002-0.007,0.005c-0.109,0.076-0.23,0.136-0.349,0.197c-0.009,0.004-0.012,0.005-0.02,0.009
			c-0.147,0.057-0.297,0.108-0.446,0.163c-0.322,0.117-0.566,0.146-0.692,0.153c-0.372,0.017-0.461-0.118-0.798-0.694
			c-0.44-0.751-1.737-0.665-1.928,0.252c-0.343,1.648,0.75,2.983,2.332,3.347c1.434,0.331,2.964-0.045,4.104-0.956
			C154.06,92.553,153.775,90.793,152.529,90.471z"/>
		<path fill="#EADDA9" d="M140.476,108.69c-0.036,0.069-0.075,0.137-0.112,0.204c-0.131,0.081-0.224,0.083-0.405,0.087
			c-0.396,0.007-0.695-0.088-1.112-0.439c-0.905-0.761-2.281-0.054-1.998,1.163c0.335,1.443,1.736,2.266,3.11,2.445
			c1.621,0.211,3.015-0.669,3.623-2.15C144.321,108.196,141.382,107.031,140.476,108.69z"/>
		<path fill="#EADDA9" d="M118.784,107.579c-0.457,0.725-0.852,1.279-1.64,1.675c-0.488,0.245-0.934-0.478-1.535-0.702
			c-0.568-0.212-1.09,0.235-1.278,0.726c-0.762,1.981,1.841,3.187,3.403,2.889c1.716-0.327,3.375-1.719,3.977-3.353
			C122.362,107.047,119.716,106.102,118.784,107.579z"/>
		<path fill="#EADDA9" d="M94.912,106.966c-0.707,0.68-1.816,0.206-2.499-0.324c-0.877-0.681-2.354,0.182-1.657,1.278
			c1.415,2.227,4.235,3,6.332,1.222C98.589,107.869,96.354,105.576,94.912,106.966z"/>
		<path fill="#EADDA9" d="M86.523,111.146c-0.032,0.116-0.062,0.232-0.091,0.349c-0.053-0.007-0.106-0.014-0.127-0.019
			c-0.058-0.015-0.452-0.173-0.331-0.117c-0.224-0.103-0.569-0.244-0.729-0.385c-0.855-0.749-2.372,0.239-1.657,1.278
			c0.678,0.983,1.468,1.87,2.705,2.116c1.819,0.362,3.124-1.092,3.237-2.815C89.646,109.791,86.982,109.521,86.523,111.146z"/>
	</g>
	<path opacity="0.2" fill="#010101" d="M87.712,79.328c-0.072,0.039-0.141,0.083-0.214,0.12c0.039,0.601-0.001,1.216-0.118,1.818
		c0.004,0.047-0.004,0.093-0.002,0.139c0.506,0.165,0.965,0.482,1.282,1c0.249,0.406,0.438,0.79,0.601,1.164
		c1.284,1.561,4.59,1.173,5.935-0.307C92.387,83.361,89.157,81.599,87.712,79.328z"/>
	<path opacity="0.2" fill="#010101" d="M79.35,71.127c1.496,1.309,3.691,1.162,5.561,1.045c0.118-0.331,0.283-0.645,0.499-0.915
		c-2.179-0.011-4.396-0.634-6.109-1.865c-0.141,0.092-0.281,0.186-0.445,0.251C79.244,70.07,79.379,70.597,79.35,71.127z"/>
	<path opacity="0.2" fill="#010101" d="M107.233,67.732c0.27-0.293,0.56-0.495,0.856-0.622c-0.972-0.104-1.949-0.348-2.866-0.726
		c-0.745,0.301-1.578,0.468-2.442,0.525C104.034,67.986,106.077,68.991,107.233,67.732z"/>
	<path opacity="0.2" fill="#010101" d="M99.676,76.262c-0.015-0.034-0.023-0.068-0.037-0.103c-0.502,0.823-1.429,1.331-2.637,0.918
		c0.438,0.149,0.531,0.245,0.427,0.312c0.511,0.098,0.994,0.332,1.34,0.677c0.756,0.755,0.859,1.72,0.533,2.598
		c0.23,0.106,0.448,0.234,0.633,0.402c0.438,0.399,4.25,2.129,5.398,2.213c0.154-0.43,0.361-0.881,0.675-1.374
		c0.378-0.594,0.983-0.95,1.634-1.086C104.383,80.715,100.857,78.919,99.676,76.262z"/>
	<path opacity="0.2" fill="#010101" d="M107.666,75.089c0.308,0.095,0.793,0.26,1.366,0.442c0.127-0.06,0.262-0.107,0.373-0.19
		c1.096-0.815,2.789-0.181,3.421,0.897c0.036,0.062,0.056,0.125,0.086,0.187c1.061,0.096,1.956-0.034,2.358-0.599
		c-1.714-0.311-3.391-1.11-4.704-2.225c-0.526-0.447-0.766-0.959-0.811-1.469c-3.415,2.368-8.647,0.689-11.189-2.365
		c-0.268-0.321-0.436-0.661-0.528-1.003c-2.229,1.73-5.047,1.391-7.561,0.246c-0.189,0.751-0.711,1.423-1.646,1.733
		c-0.059,0.02-0.121,0.032-0.18,0.05c0.096,0.083,0.19,0.167,0.282,0.271c0.244,0.276,0.454,0.548,0.644,0.818
		c0.065-0.256,0.392,0.001,0.772,0.451c0.025-0.111,0.044-0.22,0.072-0.332c0.492-1.925,2.811-2.297,4.179-1.103
		c0.586,0.511,0.981,1.023,1.22,1.523c0.216-0.055,0.433-0.111,0.649-0.164c0.645-0.101,1.221-0.221,1.861-0.002
		c0.733,0.25,1.209,0.726,1.472,1.284c0.188-0.268,0.44-0.507,0.769-0.699c1.077-0.631,2.866-0.349,3.42,0.897
		c0.29,0.652,0.943,1.204,1.72,1.576C106.223,74.976,106.888,74.848,107.666,75.089z"/>
	<path opacity="0.2" fill="#010101" d="M114.578,81.263c-1.729,0.152-3.603-0.133-5.338-0.545c-0.176,0.028-0.35,0.062-0.53,0.078
		c1.118,0.175,2.082,0.984,1.957,2.372c0,0.003-0.001,0.005-0.001,0.008c0.089,0.007,0.178,0.015,0.288,0.021
		c0.716,0.04,1.435,0.077,2.15,0.012c0.375-0.034,0.754-0.075,1.129-0.141C114.078,82.417,114.233,81.783,114.578,81.263z"/>
	<path opacity="0.2" fill="#010101" d="M116.072,68.826c-0.643-0.465-0.97-1.082-1.062-1.718c-0.925-0.138-1.861-0.319-2.756-0.571
		c-0.045-0.001-0.088,0.003-0.132,0c-0.717,0.34-1.518,0.532-2.352,0.601c0.958,0.407,1.685,1.43,1.662,2.516
		c0.822-0.345,1.812-0.315,2.668,0.412c0.578,0.49,3.091,1.625,3.74,0.672c0.17-0.25,0.366-0.443,0.574-0.605
		C117.562,69.771,116.765,69.327,116.072,68.826z"/>
	<path opacity="0.2" fill="#010101" d="M130.508,108.929c-0.049-0.107-0.088-0.216-0.123-0.324
		c-0.945-0.838-1.688-1.873-1.926-3.085c-0.085-0.434-0.094-0.818-0.049-1.164c-0.665-0.791-1.193-1.67-1.47-2.606
		c-2.422,1.311-5.858,0.507-8.201-0.923c-0.453-0.276-0.751-0.628-0.94-1.009c-2.305,0.19-5.014-0.783-6.836-2.243
		c-0.008,0.141-0.023,0.283-0.051,0.425c-0.498,2.625-2.892,3.973-5.424,3.442c-1.393-0.292-2.656-1.008-3.707-1.956
		c-2.379,3.337-7.252,3.977-9.732,1.048c-1.144,0.819-2.445,1.118-3.784,1.028c0.009,0.006,0.024,0.014,0.029,0.019
		c0.041,0.008,0.101,0.021,0.213,0.053c0.005,0.001,0.522,0.081,0.521,0.105c0.21-0.015,0.639-0.041,0.308,0.019
		c1.34-0.244,2.69,0.347,3.076,1.746c0.337,1.226-0.404,2.831-1.746,3.076c-1.306,0.238-2.526,0.136-3.673-0.233
		c0.185,0.787,0.047,1.667-0.395,2.3c0.467,0.779,0.559,1.869,0.235,2.723c0.294,0.225,0.599,0.441,0.929,0.641
		c2.399,1.446,0.835,5.404-1.927,4.57c-0.554-0.168-1.037-0.351-1.526-0.568c-1.169-0.226-1.499-0.363-2.57-1.184
		c-0.031-0.024-0.052-0.052-0.082-0.076c-0.438-0.231-0.78-0.537-1.036-0.896c-0.285-0.312-0.551-0.668-0.779-1.092
		c-0.255-0.474-0.329-0.985-0.282-1.477c-0.406-0.526-0.837-0.992-1.32-1.293c-0.178-0.11-0.329-0.246-0.468-0.394
		c-0.298,0.132-0.609,0.241-0.939,0.312c-1.331,0.287-2.699-0.379-3.076-1.746c-0.102-0.371-0.098-0.765-0.021-1.145
		c-0.189-0.001-0.379,0.003-0.568-0.021c-1.352-0.168-2.5-1.01-2.5-2.5c0-0.389,0.124-0.794,0.321-1.166
		c-0.052-0.004-0.102,0.006-0.154,0c-0.689-0.079-1.259-0.224-1.768-0.732c-0.467-0.467-0.732-1.107-0.732-1.768
		c0-0.968,0.695-2.014,1.64-2.368c-0.016-0.104-0.032-0.209-0.036-0.315c-0.809,0.578-1.755,0.922-2.837,0.949
		c-1.505,0.038-2.926-0.481-4.034-1.499c-1.004-0.922-0.933-2.603,0-3.535c0.982-0.983,2.496-0.919,3.5-0.027
		c0.011,0.004,0.015,0.005,0.027,0.009c0.057,0.018,0.115,0.029,0.174,0.042c-0.225-0.504-0.298-1.066-0.164-1.6
		c-0.342,0.234-0.72,0.43-1.144,0.576c-1.41,0.484-2.972,0.195-4.221-0.575c-1.158-0.713-1.598-2.224-0.897-3.42
		c0.439-0.75,1.263-1.199,2.104-1.229c-0.149-0.03-0.298-0.055-0.444-0.098c-1.028-0.307-1.738-1.214-1.817-2.237
		c-0.148-0.06-0.294-0.106-0.445-0.182c-1.022-0.509-1.411-1.781-1.128-2.838c-0.585,0.058-1.157,0.011-1.775-0.077
		c-0.878-0.125-1.482-0.885-1.714-1.727c-0.183,0.049-0.373,0.081-0.566,0.097c0.758,0.738,1.434,1.54,1.844,2.578
		c1.156,2.934,3.471,7.716,4.088,10.958c0.618,3.24,0.771,6.327,2.778,8.488c2.007,2.16,5.864,3.24,7.099,5.246
		c1.233,2.005,3.394,3.038,4.937,4.76c1.545,1.721,1.817,3.296,3.455,2.972c1.944,4.589,3.404,9.118,3.644,11.402
		c0.31,2.932,0.463,7.716-0.924,8.795c-1.389,1.08-1.335,3.858-1.671,5.401c-0.337,1.545,0,1.545,0,1.545h6.858
		c-0.704-4.376,0.965-4.901,1.271-7.143c0.553-4.059-1.142-9.134-2.923-13.848c-1.142-3.022,2.105-3.752,3.234-0.766
		c1.48,3.92,3.241,8.2,2.756,12.498c-0.394,3.486-1.36,6.873-1.716,10.337h2.836c0,0-0.926-3.241,0-3.859
		c0.928-0.616,2.315-1.39,1.698-4.166c-0.616-2.776-2.624-10.185-3.086-13.271c-0.215-1.435-0.429-3.234-0.551-4.907
		c0.472-0.199,0.878-0.504,1.168-0.955c1.39-2.161,1.231-4.169,2.621-4.939c1.391-0.771,3.397-0.972,7.099,0.903
		c3.704,1.875,10.031,2.801,15.433,1.565c5.025-1.148,11.784-4.565,14.439-4.66C130.782,109.468,130.636,109.208,130.508,108.929z"
		/>
	<path opacity="0.2" fill="#010101" d="M122.106,95.245c0.021,0.239,0.021,0.487-0.028,0.753c-0.057,0.303-0.138,0.579-0.229,0.842
		c0.574,0.296,1.145,0.495,1.863,0.606c0.629,0.097,0.735,0.077,0.963-0.375c0.666-1.325,1.934-1.497,2.973-1.026
		c0.021-0.035,0.03-0.076,0.053-0.11c-0.008-0.342,0.047-0.68,0.147-1.009C126.066,95.87,123.98,95.966,122.106,95.245z"/>
	<path opacity="0.2" fill="#010101" d="M116.372,87.686c0.262,0.071,0.523,0.142,0.79,0.189c0.341,0.061,0.106,0.054,0.645,0.068
		c0.104,0.003,0.209-0.003,0.314-0.002c0.295-0.471,0.745-0.843,1.381-1.018c0.128-0.035,0.263-0.052,0.398-0.064
		c-0.463-0.066-0.925-0.167-1.379-0.312c-0.705,0.428-1.57,0.773-2.514,1.038C116.066,87.604,116.158,87.627,116.372,87.686z"/>
	<path opacity="0.2" fill="#010101" d="M110.59,88.665c-0.037-0.183-0.053-0.358-0.055-0.528c-0.993-0.071-1.936-0.236-2.746-0.516
		c-2.377,1.011-5.771,0.297-8.501-1.081c-0.611,0.8-1.394,1.425-2.278,1.89c0.058,0.08,0.119,0.17,0.122,0.172
		c0.378,0.242,0.699,0.418,1.084,0.519c0.198,0.052,0.374,0.091,0.54,0.121c0.626-0.623,1.552-0.959,2.41-0.652
		c0.199,0.071,0.382,0.148,0.553,0.229c0.882-0.291,1.927-0.149,2.55,0.582c0.489,0.574,1.124,0.925,2.01,1.153
		c0.469,0.122,0.612,0.18,1.055,0.15c0.001-0.001,0.002-0.002,0.002-0.003c-0.089-0.005-0.02-0.048,0.058-0.073
		c1.614-1.967,4.853-0.332,4.463,1.883c0.829,0.027,1.603,0.5,2.137,1.228c-0.363-0.496,0.465,0.311,0.189,0.131
		c0.248,0.162,0.499,0.323,0.766,0.455c0.44,0.218,0.946,0.397,1.475,0.498c0.311,0.06,0.572,0.068,0.801,0.031
		c0.008-0.047,0.019-0.107,0.033-0.184c0.205-1.092,0.919-1.627,1.732-1.757C115.669,93.359,111.198,91.652,110.59,88.665z"/>
	<path opacity="0.2" fill="#010101" d="M101.666,93.911c-3.588,1.324-8.317-0.59-9.576-4.246c-0.029-0.086-0.038-0.166-0.059-0.25
		c-1.229-0.075-2.455-0.356-3.577-0.84c-0.574,0.486-1.298,0.841-2.084,1.077c0.33,0.537,0.472,1.171,0.407,1.762
		c0.019,0.016,0.034,0.036,0.053,0.052c0.517,0.448,1.06,0.838,1.714,1.208c0.299,0.169,0.517,0.294,0.727,0.398
		c1.215-1.688,4.567-1.214,4.563,1.428c-0.001,0.354-0.041,0.669-0.1,0.968c0.862,0.119,1.668,0.644,2.011,1.701
		c0.063,0.199,0.043,0.22,0.263,0.322c0.001,0,0.001,0,0.003,0c-0.305-0.153,0.438,0.01,0,0v0c0.166,0.011,0.333,0.011,0.499,0
		c-0.191,0.02,0.416-0.137,0.509-0.193c0.144-0.087,0.474-0.369,0.489-0.393c0.674-0.965,1.809-1.475,2.91-1.123
		c0.227-0.463,0.572-0.865,0.987-1.108c0.332-0.195,0.668-0.297,0.998-0.329c-0.231-0.145-0.441-0.31-0.652-0.473
		C101.723,93.885,101.694,93.9,101.666,93.911z"/>
	<path opacity="0.2" fill="#010101" d="M131.658,84.308c-0.615-0.169-1.226-0.355-1.822-0.563c-0.441-0.154-0.78-0.396-1.046-0.681
		c-0.452-0.022-0.897-0.057-1.329-0.103c-1.252,2.771-3.985,4.085-6.803,3.949c0.912,0.187,1.768,0.817,1.92,1.759
		c0.065,0.407,0.078,0.783,0.046,1.128c0.22,0.108,0.438,0.244,0.645,0.435c0.812,0.748,1.747,0.646,2.514,0.071
		c-0.069-0.05-0.143-0.093-0.21-0.145c-1.077-0.831-1.652-2.131-0.896-3.42c0.622-1.063,2.338-1.732,3.42-0.897
		c0.691,0.534,1.503,0.897,2.029,0.918c0.002,0,0.522-0.032,0.538-0.001c0.191-0.072,0.535-0.204,0.275-0.045
		c0.065-0.041,0.102-0.055,0.125-0.061c-0.005-0.021-0.002-0.064,0.026-0.15c0.204-0.623,0.576-1.044,1.016-1.325
		C131.939,84.898,131.788,84.61,131.658,84.308z"/>
	<path opacity="0.2" fill="#010101" d="M141.066,79.935c-0.08-0.085-0.138-0.174-0.203-0.262c-0.187,0.098-0.378,0.19-0.576,0.275
		c1.272,1.009,1.66,3.115-0.191,4.044c-0.298,0.149-0.603,0.259-0.907,0.371c0.257,0.392,0.413,0.854,0.45,1.315
		c0.002,0,0.002,0,0.004,0c0.299-0.535,0.76-0.944,1.303-1.164c0.227-0.846,0.84-1.603,1.724-1.757
		c1.566-0.273,2.962-0.056,4.454,0.44c0.261,0.086,0.523,0.174,0.79,0.247c0.05-0.102,0.096-0.216,0.147-0.36
		C145.515,83.094,142.641,81.594,141.066,79.935z"/>
	<path opacity="0.2" fill="#010101" d="M147.94,78.096c0.622-0.98,1.605-1.224,2.5-1.002c0.061-0.09,0.133-0.171,0.204-0.252
		c-1.642-0.18-3.235-0.818-4.569-1.825c-0.362,0.578-0.819,1.086-1.379,1.471c0.555,0.558,1.275,1.045,2.131,1.33
		C147.242,77.956,147.603,78.086,147.94,78.096z"/>
	<path opacity="0.2" fill="#010101" d="M151.417,71.896c-0.321-0.342-0.555-0.744-0.667-1.178c-0.957-0.023-1.965-0.234-2.89-0.391
		c-0.038,0.074-0.068,0.154-0.109,0.226c0.537,0.073,1.065,0.306,1.518,0.68C149.872,71.731,150.645,71.913,151.417,71.896z"/>
	<path opacity="0.2" fill="#010101" d="M166.655,79.81c-2.161-5.247-5.981-15.123-15.953-15.894
		c-0.735-0.057-1.496-0.121-2.268-0.188c-0.067,0.397-0.225,0.773-0.471,1.096c0.072,0.184,0.13,0.372,0.187,0.561
		c0.171,0.001,0.343,0.014,0.516,0.038c0.58,0.082,1.148,0.225,1.725,0.325c0.786-0.647,1.985-0.759,2.872-0.24
		c0.924,0.541,1.323,1.537,1.187,2.514c0.107,0.074,0.216,0.146,0.326,0.214c0.611-0.718,1.574-1.084,2.557-0.813
		c1.278,0.352,2.153,1.775,1.746,3.075c-0.449,1.434-1.522,2.638-2.986,2.931c0.089,0.384,0.088,0.75,0.011,1.089
		c0.289-0.029,0.59-0.013,0.896,0.071c1.26,0.347,2.178,1.782,1.746,3.075c-0.573,1.714-1.677,3.051-3.374,3.724
		c-1.176,0.467-2.391,0.274-3.445-0.284c-0.093,0.138-0.18,0.288-0.28,0.41c1.029,0.429,1.748,1.442,1.267,2.817
		c-0.348,0.991-0.864,2.028-1.582,2.824c0.554-0.296,1.21-0.405,1.836-0.233c1.337,0.368,2.074,1.754,1.746,3.075
		c-0.415,1.669-2.004,2.966-3.771,2.807c-1.22-0.11-2.369-0.477-3.402-1.146c-1.122-0.726-1.587-2.154-0.926-3.357
		c-0.429-0.102-0.851-0.23-1.286-0.372c-0.362-0.118-0.729-0.244-1.104-0.315c-0.062-0.012-0.141-0.019-0.215-0.023
		c-0.27,0.761-0.667,1.354-1.152,1.809c1.466,0.027,2.979,1.239,2.522,3.099c-0.416,1.693-1.806,2.652-3.415,2.917
		c-0.001,0.028,0.006,0.057,0.004,0.085c-0.011,0.118-0.012,0.236-0.019,0.354c1.062,0.12,2.074,0.39,3.121,0.581
		c0.294-1.093,1.157-1.934,2.397-1.934c1.277,0,2.613,1.14,2.5,2.5c-0.199,2.396-1.461,4.23-3.98,4.463
		c-0.679,0.062-1.376-0.031-2.052-0.166c0.211,0.367,0.422,0.735,0.634,1.103c0.257,0.207,0.42,0.46,0.541,0.727
		c0.208,0.014,0.417,0.03,0.624,0.017c0,0,0.001,0,0.002,0c0.511-1.25,1.649-2.108,3.063-1.719c1.203,0.33,2.252,1.808,1.746,3.075
		c-0.313,0.784-0.726,1.504-1.255,2.097c0.627,0.159,1.19,0.546,1.502,1.143c1.242,2.377-0.516,4.731-2.878,5.355
		c-0.474,0.125-0.941,0.176-1.403,0.19c0.62,0.735,1.041,1.649,1.103,2.592c0.607,1.034,0.836,2.256,0.677,3.486
		c0.797,1.494,1.053,3.25,0.683,4.737c0.896,1.397,0.859,3.406-0.2,5.26c0.033,0.104,0.075,0.201,0.105,0.31
		c0.396,1.416-0.484,2.581-1.746,3.076c-1.568,0.614-2.812,1.243-4.498,1.422c-0.09,0.01-0.169,0-0.254,0.002
		c-0.771,1.21-1.018,2.404,0.792,2.345c-0.101,0.247-0.202,0.493-0.304,0.739c0.332,0.049,0.678,0.178,1.027,0.423
		c3.834,2.682,0.238,8.583-2.37,12.705c0.706-0.038,3.325-0.206,3.325-0.206s0.771-4.166,1.697-4.166
		c0.927,0,0.496,0.464,1.175-2.005c0.629-2.293,1.605-7.513,2.483-9.851c0.874-0.463,1.822-1.751,2.514-3.729
		c0.532-1.521,1.325-3.267,1.939-5.162c1.294,2.397,2.12,4.883,1.765,6.396c-0.616,2.623-0.616,6.174-0.771,8.179
		c-0.153,2.006-2.231,6.328-1.731,7.716c0.497,1.388,6.053,0,6.053,0s0.771-8.795,1.233-10.956s-1.079-8.023,0-9.183
		c1.08-1.156,0.95-5.322,0.09-7.638c-0.86-2.314-3.021-4.012-3.021-6.789c0-1.856,1.167-5.913,1.345-8.726
		c1.015-1.664,1.919-3.463,2.359-5.163c1.079-4.167,0.616-10.493,2.005-12.037C165.573,85.519,168.814,85.057,166.655,79.81z"/>
	<path opacity="0.2" fill="#010101" d="M135.136,89.381c-0.561,0.793-1.296,1.379-2.128,1.77c0.21,0.008,0.428,0.037,0.658,0.105
		c0.635-0.027,1.271-0.054,1.906-0.082c0.337-0.167,0.68-0.263,1.018-0.296c0.21-0.223,0.457-0.403,0.726-0.53
		c-0.545-0.137-1.077-0.312-1.576-0.522C135.498,89.724,135.305,89.563,135.136,89.381z"/>
	<path opacity="0.2" fill="#010101" d="M55.837,75.908c0.231-0.747,0.778-1.358,1.665-1.485c0.094-0.013,0.178-0.02,0.269-0.032
		c0.73-0.779,1.654-1.001,2.608-0.805c0.221-0.047,0.443-0.062,0.669-0.044c0.407-0.246,0.874-0.384,1.348-0.375
		c0.325-0.986,1.103-1.818,2.271-1.666c0.013,0.001,0.178-0.296,0.407-0.716c-0.692-1.204-0.206-3.085,1.321-3.735
		c0.024-0.104,0.057-0.223,0.105-0.369c0.152-0.431,0.322-0.856,0.507-1.274c0.846-1.443,1.088-1.286,1.892-0.471
		c-1.827-1.854-0.12-4.166,1.891-4.133c0.214-0.251,0.482-0.438,0.781-0.566c-0.09-0.112-0.191-0.214-0.263-0.339
		c-0.005-0.009-0.007-0.019-0.012-0.027c-0.446,0.388-1.021,0.63-1.63,0.63c-1.332,0-2.362-1.047-2.479-2.333
		c-0.504-0.369-0.807-0.857-0.92-1.4c-0.134-0.085-0.268-0.17-0.402-0.255c-0.143-0.09-0.283-0.188-0.424-0.283
		c-0.592-0.274-1.135-0.691-1.542-1.127c-0.395-0.422-0.621-0.945-0.688-1.481c-0.241,0.141-0.531,0.243-0.879,0.291
		c-1.057,0.145-1.918,0.136-2.946-0.188c-0.737-0.224-0.803-0.306-0.197-0.244c-0.399-0.039-0.793-0.115-1.184-0.206
		c-0.857,0.252-1.918,0.078-2.831-0.278c-0.672,0.169-1.381,0.138-2.086-0.032c-1.093,0.15-2.098-0.239-2.821-1.074
		c-0.183-0.042-0.347-0.1-0.498-0.168c0.281,0.845,0.636,1.016,1.423,1.074c-0.027,0.062-0.056,0.125-0.084,0.189
		c-0.161,0.003-0.306-0.001-0.458-0.002c0.252,0.316,0.414,0.685,0.476,1.076c0.454,0.17,0.876,0.27,1.211,0.199
		c0.735-0.155,1.554-0.048,2.159,0.424c0.898-0.285,1.932-0.221,2.606,0.552c-0.263-0.302,1.062-0.021,1.584,0.239
		c0.185-0.1,0.37-0.195,0.554-0.297c2.882-1.598,5.07,2.448,2.523,4.317c-0.469,0.344-0.923,0.602-1.369,0.797
		c-0.178,0.458-0.487,0.881-0.965,1.203c-3.122,2.107-5.151,6.283-8.685,7.581c-2.183,0.802-4.427,0.755-6.356-0.206
		c0.568,0.917,1.398,2.108,2.375,2.764c0.691,0.463,1.886,0.694,3.101,0.694l-0.002,0c-0.006-0.001-0.393,0.755,0.151,2.545
		c0.734-0.31,1.542-0.189,2.264,0.209c0.604-0.381,1.39-0.507,2.056-0.324C54.904,74.914,55.484,75.353,55.837,75.908z
		 M53.854,71.266c0.78-0.304,1.678-0.483,2.501-0.585C55.792,70.785,54.851,71.012,53.854,71.266z"/>
	<path opacity="0.2" fill="#010101" d="M70.622,53.896c0.156,0.088,0.301,0.196,0.448,0.299c0.742-0.428,1.682-0.459,2.487-0.037
		c0.157-0.524,0.506-0.972,0.96-1.288c0.067-0.09,0.141-0.173,0.217-0.253c-1.002-2.235-5.582-5.872-9.308-7.064
		c-3.858-1.233-9.877-2.161-11.729,1.543c-0.092,0.183-0.195,0.343-0.306,0.492c0.08,0.033,0.154,0.065,0.203,0.087
		c0.271,0.009,0.524,0.053,0.752,0.133c0.071-0.024,0.147-0.034,0.221-0.052c0.049-0.307,0.129-0.603,0.273-0.85
		c0.43-0.732,1.291-1.279,2.159-1.238c1.061,0.05,1.872,0.398,2.483,1.3c0.11,0.163,0.176,0.322,0.227,0.482
		c0.053,0.109,0.099,0.226,0.137,0.351c0.292-0.318,0.657-0.574,1.058-0.706c0.72-0.334,1.589-0.301,2.357,0.081
		c0.087,0.043,0.175,0.085,0.263,0.125c0.002,0.001,0.001,0,0.003,0.001c0.391,0.104,0.744,0.268,1.073,0.598
		c0.152,0.152,0.274,0.328,0.382,0.512c0.171-0.042,0.344-0.078,0.518-0.078c1.441,0,2.396,1.142,2.5,2.5
		c-0.101-1.317,0.054,0.026,0.021,0.271c-0.033,0.246-0.079,0.471-0.137,0.688c0.019,0.013,0.046,0.021,0.064,0.035
		c0.059,0.043,0.101,0.095,0.155,0.141c0.843,0.494,1.728,1.092,2.363,1.751C70.523,53.777,70.569,53.838,70.622,53.896z"/>
</g>
</svg>
