<?xml version="1.0" encoding="utf-8"?>
<!-- Generator: Adobe Illustrator 16.0.0, SVG Export Plug-In . SVG Version: 6.00 Build 0)  -->
<!DOCTYPE svg PUBLIC "-//W3C//DTD SVG 1.1//EN" "http://www.w3.org/Graphics/SVG/1.1/DTD/svg11.dtd">
<svg version="1.1" id="Layer_1" xmlns="http://www.w3.org/2000/svg" xmlns:xlink="http://www.w3.org/1999/xlink" x="0px" y="0px"
	 width="200px" height="200px" viewBox="0 0 200 200" enable-background="new 0 0 200 200" xml:space="preserve">
<g>
	<g>
		<path fill="#9E6638" d="M82.632,95.04c-0.495,2.96-0.124,7.277,1.972,10.855c2.098,3.576,3.578,7.276,4.07,10.113
			c0.495,2.838,2.961,5.428,3.579,7.278c0.616,1.85,1.355,5.181,1.85,7.031c0.492,1.85,0.862,5.797,0,7.277
			c-0.864,1.48-3.578,5.304-3.578,6.908c0,1.603,3.083,0,3.083,0s1.48,2.467,3.208,1.48c1.728-0.988,4.81-6.416,4.81-9.005
			c0-2.59,0.494-15.051,0-17.886c-0.492-2.837-2.836-11.597-6.167-14.803C92.13,101.085,82.632,95.04,82.632,95.04z"/>
		<path fill="#9E6638" d="M129.383,108.237c2.343,3.33,4.562,9.855,4.193,12.391c-0.371,2.535-1.357,9.443-2.838,10.431
			c-1.479,0.986-2.715,3.331-2.466,5.305c0.246,1.972,0.986,2.097,0.986,2.097l0.985-0.493c0,0,1.111,1.232,1.605,1.232
			c0.493,0,3.699-0.493,4.069-1.48c0.371-0.986-1.355-6.906,0-6.537c1.357,0.369,2.098,2.591,2.345,1.357
			c0.246-1.235,0-3.454,0-4.44c0-0.987,1.973-5.799,1.851-8.267c-0.124-2.466-0.729-4.933,0.004-6.537
			c0.735-1.603,0.742-3.698-0.622-5.92c-1.363-2.22-2.59-4.194-3.701-3.948C134.686,103.674,129.383,108.237,129.383,108.237z"/>
		<path fill="#9E6638" d="M63.512,51.867c0.741-1.974,2.22-6.292,4.194-7.279c1.974-0.985,3.084-0.738,4.812,0
			c1.727,0.74-0.248,0.74-1.727,1.357c-1.48,0.617-2.961,4.442-3.331,5.922S63.512,51.867,63.512,51.867z"/>
		<path fill="#9E6638" d="M68.351,51.004c1.719-2.301,3.303-6.236,8.113-7.066c4.81-0.829,8.881,1.146,6.044,1.516
			c-2.836,0.369-5.797,0.747-7.401,2.778c-1.604,2.031-1.356,4.088-2.59,4.293C71.283,52.73,67.743,51.817,68.351,51.004z"/>
		<path fill="#D1864A" d="M62.526,53.1c-2.837-0.74-9.746-4.07-10.607-2.467c-0.864,1.604,2.342,4.564,3.822,5.798
			s3.948,1.851,4.934,1.233C61.662,57.047,62.526,53.1,62.526,53.1z"/>
		<path fill="#9E6638" d="M51.918,50.633c2.153-0.309,5.796,2.649,7.646,3.421c1.85,0.773,2.344,0.652,1.85,2.563
			c-0.493,1.91-1.722,2.019-3.698,0.915c-1.976-1.102-4.491-3.087-5.172-4.403C51.866,51.813,51.918,50.633,51.918,50.633z"/>
		<path fill="#D1864A" d="M66.966,50.203c-2.94,0.489-3.927,1.145-5.371,2.615c-1.445,1.472-3.511,4.601-3.017,6.819
			c0.493,2.221,1.578,2.961-0.076,4.812c-1.652,1.85-3.254,5.673-2.884,7.153c0.369,1.48,0.47,3.824,1.532,4.564
			c1.059,0.74,2.65-0.123,4.445,0.863c1.793,0.987,1.042,8.264,0,10.238c-1.044,1.974,3.027-2.22,3.521-4.687
			c0.494-2.468,1.727-4.811,1.85-3.7c0.125,1.109-1.356,6.536-2.096,7.4c-0.74,0.862,2.713-0.493,4.317-4.441
			c1.604-3.947,1.11-7.523,1.85-7.523s1.336,2.555,2.153,5.55c1.178,4.317,6.605,13.446,8.579,16.282
			c1.973,2.837,4.44,6.414,6.907,9.376c2.467,2.96,7.155,4.687,8.141,6.66c0.988,1.974,2.22,8.018,1.974,9.498
			c-0.17,1.021-0.662,2.748-0.556,4.691c0.047,0.874,11.998-6.304,11.989-6.755c-0.056-2.806,0.021-5.896-0.086-7.064
			c-0.097-1.072,0.577-0.912,3.237-0.311c0.707,0.159,11.938-4.195,14.279-4.689c2.345-0.493,9.252-2.525,11.719-2.896
			c2.467-0.369,2.961,2.562,3.454,5.846s0.987,4.271,2.837,4.763c1.85,0.493,2.837,0.493,2.837,2.222
			c0,0.441-0.049,1.563-0.136,3.014c-0.251,4.216,3.961-4.632,5.07-5.495c0.42-0.327,3.836-1.756,3.705-2.145
			c-1.02-3.04-2.486-5.916-2.595-7.339c-0.124-1.604-1.234-9.746,0.369-8.02c1.604,1.728,2.962,5.798,1.357-2.22
			s-2.874-17.76-1.233-16.53c1.974,1.481,2.699,3.085,1.109-1.233c-1.396-3.79-4.811-4.687-5.427-6.042
			c-0.616-1.358,0.37-2.098-2.714-4.44c-3.084-2.345-5.674-6.539-12.334-7.28c-6.664-0.738-13.816,0.249-18.873,2.222
			c-5.059,1.973-11.596,6.291-16.406,6.538c-4.811,0.245-5.921-0.124-8.019,0.245c-2.096,0.371-5.427,0.741-7.153-0.863
			c-1.728-1.603-4.688-7.03-4.935-8.88c-0.246-1.852-2.34-8.757-6.29-8.818C70.05,50.14,68.46,49.953,66.966,50.203z"/>
		<path fill="#F3F3F3" d="M65.006,59.346c0.174-1.525,0.708-2.512,1.975-3.413c0.443-0.315,1.451-1.389,2.057-2.024
			c1.398-1.467,2.855-2.785,4.593-3.713c-3.667-0.068-5.221-0.233-6.666,0.008c-1.27,0.211-2.164,0.459-2.899,0.784
			c-0.182,0.363-0.409,0.722-0.738,1.062c-1.691,1.749-3.343,6.574-0.338,7.899c0.633,0.279,1.007,0.378,1.294,0.333
			C64.515,59.985,64.757,59.67,65.006,59.346z"/>
		<path fill="#F3F3F3" d="M156.717,111.677c-0.874,0.316-1.817,0.396-2.821,0.152c-0.226,0.635-0.448,1.269-0.688,1.897
			c-0.444,1.169-1.062,2.786-2.074,3.608c-0.963,0.783-1.854,1.288-2.68,1.571c-0.178,3.715-0.821,12.639-1.556,14.002
			c-0.862,1.604-2.714,4.934-2.714,6.415c0,1.479,1.233,0.493,1.975,0.74c0.739,0.246,0.616,1.603,2.343,0.863
			c1.728-0.741,3.454-2.592,3.577-4.071c0.123-1.48,0.863-5.305,1.357-7.771c0.492-2.467-1.109-12.213,0-13.076
			c1.11-0.863,2.096-2.344,2.961,0.494c0.862,2.837,2.096,0.987,1.109-2.467C157.279,113.241,157.004,112.449,156.717,111.677z"/>
		<path fill="#F3F3F3" d="M110.204,118.038c-0.016,0.017-0.031,0.036-0.047,0.052c-2.016,2.017-4.391,1.604-6.544,0.483
			c-0.107,0.44-0.141,0.978-0.392,1.891c-0.249,0.905-0.806,2.312-1.56,2.918c-1.218,0.98-2.248,1.505-3.411,1.739
			c-0.078,1.226,0.014,2.592,0.571,3.964c1.202,2.96,0.032,7.154,0,8.757c-0.032,1.604-1.264,4.441-2.005,5.553
			c-0.74,1.109-1.357,3.021-1.603,3.822c-0.248,0.804,2.342,0.804,3.083,0.804c0.741,0,1.111,2.156,2.713,1.416
			c1.605-0.74,2.098-2.22,2.715-2.837c0.616-0.615,0.74-0.862,0.616-2.59c-0.123-1.727,1.11-2.22,1.11-3.7
			c0-1.479-0.861-3.824-1.11-6.784c-0.245-2.962,0.618-5.922,1.11-7.771c0.494-1.851,0.617-2.096,2.098-0.495
			c1.479,1.604,2.959,1.851,3.578,1.235c0.615-0.617-0.74-2.467-0.865-5.551C110.225,120.021,110.211,119.022,110.204,118.038z"/>
		<path fill="#F3F3F3" d="M137.721,102.218c-1.898-0.085-4.107-0.31-5.957,0.229c-2.188,0.637-3.559,3.031-5.867,3.797
			c-2.613,0.866-5.285,1.241-8,1.667c-3.152,0.493-5.454,1.171-5.674,4.078c0.877,0.187,2.078,0.477,3.714,0.812
			c4.811,0.989,9.376,0.249,11.718-0.245c2.345-0.493,9.252-7.525,11.719-7.896c0.229-0.034,0.436-0.031,0.633-0.011
			C140.021,103.125,139.841,102.312,137.721,102.218z"/>
		<path fill="#D1864A" d="M75.107,56.555c-0.494-1.851-1.572-8.013,0.756-8.323c2.328-0.312,4.424,3.019,4.671,4.991
			c0.248,1.975-0.247,4.934-0.987,6.662"/>
		<path fill="#9E6638" d="M77.512,57.047c-0.184-1.109-0.184-1.915-1.048-2.993c-0.863-1.076-2.097-2.23-1.48-3.443
			c0.618-1.211,0.844-2.48,3.084-0.407c2.241,2.07,1.623,3.426,0.935,4.702C78.314,56.184,77.512,57.047,77.512,57.047z"/>
		<path fill="#FFFFFF" d="M68.351,60.501c-0.135-0.355,1.206-1.81,1.946-2.261c0.74-0.452,2.085-0.499,2.893,0
			c0.808,0.497,0.562,2.509-0.919,2.261c-1.479-0.246-1.974-0.616-1.974-0.616S68.486,60.856,68.351,60.501z"/>
		<path fill="#F7A7B5" d="M55.91,70.646c0.034,0.395,0.626,1.155,0.845,1.249c0.219,0.092,1.19-0.186,1.838-0.625
			c0.647-0.439,1.85-1.642,1.342-1.873c-0.51-0.231-0.51,0.278-1.111,0.693c-0.601,0.417-1.132,1.204-1.674,0.971
			C56.604,70.831,55.819,69.536,55.91,70.646z"/>
		<path fill="none" stroke="#010101" stroke-linecap="round" stroke-miterlimit="10" d="M56.222,74.541
			c0.775,0.554,2.616,0.454,3.836-0.01c1.218-0.462,4.502-2.219,4.502-2.219"/>
		<ellipse fill="#010101" cx="71.721" cy="59.145" rx="1.098" ry="0.37"/>
	</g>
	<path opacity="0.2" fill="#010101" d="M140.297,90.719c-2.992,4.383-7.694,7.191-13.246,8.078
		c-5.992,0.957-13.358,0.47-19.613-1.383c1.172,7.386-0.131,14.464-2.777,22.001c-0.172,0.491-0.45,0.856-0.78,1.131
		c-0.042,0.194-0.101,0.372-0.173,0.533c0.177,1.289,0.291,2.593,0.293,3.921c0.002,0.981-0.463,1.659-1.105,2.043
		c0.556,7.495,0.347,15.518-3.809,21.656c0.425,0.559,0.944,1.19,1.924,0.737c1.605-0.74,2.098-2.22,2.715-2.837
		c0.616-0.615,0.74-0.862,0.616-2.59c-0.123-1.727,1.11-2.22,1.11-3.7c0-1.479-0.861-3.824-1.11-6.784
		c-0.245-2.962,0.618-5.922,1.11-7.771c0.494-1.851,0.617-2.096,2.098-0.495c1.479,1.604,2.959,1.851,3.578,1.235
		c0.615-0.617-0.74-2.467-0.865-5.551c-0.018-0.449-0.03-0.919-0.039-1.395c-0.002-0.076-0.002-0.153-0.004-0.23
		c-0.006-0.362-0.01-0.728-0.013-1.093c-0.017-2.374,0.021-4.694-0.068-5.67c-0.082-0.917,0.409-0.929,2.214-0.538
		c0.14,0.03,0.288,0.062,0.443,0.098c0.188,0.042,0.367,0.082,0.58,0.13h0.002c0.707,0.159,1.541,0.347,2.56,0.556
		c4.811,0.989,9.376,0.249,11.718-0.245c0.712-0.149,1.848-0.906,3.147-1.892c0.062,0.123,0.122,0.249,0.183,0.374
		c0.332-0.269,0.679-0.521,0.998-0.806c1.051-1.026,3.258-1.009,3.926,0.506c4.092,9.276-3.071,18.826-3.17,28.352
		c1.135-0.195,2.911-0.65,3.181-1.371c0.371-0.986-1.355-6.906,0-6.537c1.357,0.369,2.098,2.591,2.345,1.357
		c0.246-1.235,0-3.454,0-4.44c0-0.987,1.973-5.799,1.851-8.267c-0.124-2.466-0.729-4.933,0.004-6.537
		c0.735-1.603,0.742-3.698-0.622-5.92c-0.487-0.793-0.956-1.55-1.408-2.189c0.497-0.279,0.938-0.474,1.285-0.525
		c0.229-0.034,0.436-0.031,0.633-0.011c0.645,0.066,1.121,0.417,1.491,0.96c-0.138-1.332-0.243-2.665-0.356-3.979
		C140.834,98.059,140.652,94.367,140.297,90.719z"/>
	<path opacity="0.2" fill="#010101" d="M76.301,86.437c0.046-0.034,0.09-0.072,0.136-0.108c4.696-3.696,5.724-13.817,5.08-19.629
		c-0.142-0.229-0.282-0.46-0.425-0.688c-0.817-1.298-0.268-2.537,0.712-3.198c-0.798-1.533-1.409-2.995-1.516-3.792
		c-0.03-0.229-0.089-0.535-0.176-0.896c0.396-1.604,0.599-3.499,0.423-4.903c-0.247-1.973-2.343-5.304-4.671-4.991
		c-0.812,0.108-1.204,0.935-1.356,2.034c-0.167-0.027-0.332-0.059-0.505-0.062c0.247-0.615,0.568-1.292,1.105-1.972
		c1.604-2.031,4.565-2.409,7.401-2.778c1.656-0.216,0.95-0.977-0.875-1.409c-1.318-0.05-2.642,0.093-3.911,0.501
		c-2.464,0.792-3.532,2.425-5.121,4.343c-0.315,0.381-0.639,0.761-0.971,1.132c0.207,0.022,0.398,0.075,0.581,0.141
		c0.631,0.095,1.242,0.429,1.698,1.078c0.822,1.171,1.401,2.56,1.463,3.923c1.385,2.532,0.93,5.87-2.657,6.675
		c-0.92,0.206-1.723,0.365-2.44,0.581c-1.742,3.706-4.94,6.365-6.866,10.095c-0.665,1.287-1.893,1.482-2.916,1.055
		c-1.295,0.651-2.653,1.057-4.205,1.156c0.193,0.623,0.452,1.158,0.862,1.444c1.059,0.74,2.65-0.123,4.445,0.863
		c1.793,0.987,1.042,8.264,0,10.238c-1.044,1.974,3.027-2.22,3.521-4.687c0.494-2.468,1.727-4.811,1.85-3.7
		c0.125,1.109-1.356,6.536-2.096,7.4c-0.74,0.862,2.713-0.493,4.317-4.441c1.604-3.947,1.11-7.523,1.85-7.523
		s1.336,2.555,2.153,5.55c0.466,1.709,1.601,4.172,2.921,6.7C76.174,86.524,76.239,86.483,76.301,86.437z"/>
	<path opacity="0.2" fill="#010101" d="M97.981,115.839c-0.568-1.754-0.817-3.092-1.615-4.296c-2.917-2.646-6.132-3.442-10-8.95
		c-0.89-1.268-2.703-4.028-3.923-5.475c0.059,0.811,0.226,3.318,0.408,4.162c0.112,0.134,0.216,0.285,0.309,0.458
		c4.367,8.103,10.636,15.251,12.109,24.613c0.979,6.217,1.158,12.848-1.954,18.294c0.182-0.083,0.295-0.142,0.295-0.142
		s0.785,1.217,1.588,1.713c2.668-3.963,4.219-8.457,4.15-13.213c-0.029-1.945-1.066-4.337-1.176-6.809
		C98.007,122.518,99.75,121.303,97.981,115.839z"/>
	<path opacity="0.2" fill="#010101" d="M157.506,114.036c-0.111-0.391-0.235-0.78-0.365-1.167c-0.001-0.002,0.001-0.004,0-0.005
		c-1.02-3.04-2.486-5.916-2.595-7.339c-0.124-1.604-1.234-9.746,0.369-8.02c1.604,1.728,2.962,5.798,1.357-2.22
		s-2.874-17.76-1.233-16.53c1.974,1.481,2.699,3.085,1.109-1.233c-1.396-3.79-4.811-4.687-5.427-6.042
		c-0.616-1.358,0.37-2.098-2.714-4.44c-2.176-1.654-4.123-4.221-7.412-5.853c0.117,0.146,0.234,0.29,0.346,0.438
		c1.642,1.742,2.896,3.882,3.543,6.518c0.572,2.333,0.742,4.762,0.463,7.129c0.186,2.003,0.335,4.064,0.557,6.15
		c0.792,7.47,3.288,14.783,4.57,22.192c0.645,3.729,1.672,8.067,0.403,11.748c1.528,8.324,1.387,17.872-3.819,24.648
		c-0.067,0.088-0.145,0.156-0.218,0.232c0.459,0.432,0.595,1.311,2.061,0.683c1.728-0.741,3.454-2.592,3.577-4.071
		c0.123-1.48,0.863-5.305,1.357-7.771c0.492-2.467-1.109-12.213,0-13.076c1.11-0.863,2.096-2.344,2.961,0.494
		C157.259,119.34,158.492,117.49,157.506,114.036z"/>
</g>
</svg>
