<?xml version="1.0" encoding="utf-8"?>
<!-- Generator: Adobe Illustrator 16.0.0, SVG Export Plug-In . SVG Version: 6.00 Build 0)  -->
<!DOCTYPE svg PUBLIC "-//W3C//DTD SVG 1.1//EN" "http://www.w3.org/Graphics/SVG/1.1/DTD/svg11.dtd">
<svg version="1.1" id="Layer_1" xmlns="http://www.w3.org/2000/svg" xmlns:xlink="http://www.w3.org/1999/xlink" x="0px" y="0px"
	 width="200px" height="200px" viewBox="0 0 200 200" enable-background="new 0 0 200 200" xml:space="preserve">
<g>
	<g>
		<path fill="#F7A7B5" d="M149.852,74.091c0.584-1.326,1.566-4.283,2.621-3.434c1.055,0.848,1.902,5.655,3.176,4.666
			c1.271-0.989,1.223-2.583,1.697-3.506c0.67-1.31,0.793,1.238,0,3.64c-0.643,1.943-2.828,2.998-3.959,1.008
			c-1.133-1.99-1.838-0.01-2.828-0.717C149.568,75.041,149.852,74.091,149.852,74.091z"/>
		<path fill="#EF8FA4" d="M84.846,101.871c1.38,3.499,3.499,7.74,4.56,10.498c1.061,2.756,1.842,7.73,1.804,9.861
			c-0.106,5.832-3.258,5.727-3.167,6.469c0.091,0.744,0.515,0.531,1.363,0.531s-0.425,0.213,0.636,0.848
			c1.061,0.637,4.56,0.849,5.303-1.273c0.741-2.12,1.165-6.785,0.741-9.861c-0.422-3.074-2.27-18.092-5.535-18.961
			C87.284,99.112,84.846,101.871,84.846,101.871z"/>
		<path fill="#EF8FA4" d="M120.16,105.9c1.482,2.65,2.648,2.438,1.164,5.832c-1.482,3.393-2.969,8.165-4.453,8.695
			s-4.984,3.182-5.41,4.137c-0.422,0.955,2.334-0.319,1.494,0.451c-1.459,1.34,4.764,0.291,5.824,0.291
			c1.062,0,1.803-0.637,2.758-1.379c0.953-0.742,5.408-10.923,6.787-11.771c1.379-0.848,1.908-3.287,1.588-5.408
			c-0.314-2.121,0.32-4.561-1.377-4.666C126.84,101.977,120.16,105.9,120.16,105.9z"/>
		<path fill="#EF8FA4" d="M76.573,64.648c-2.768-2.86-7.954-6.574-9.861-6.999c-1.908-0.425-5.939-1.061-6.045,0
			c-0.105,1.061,0.637,2.651,2.863,4.029c2.227,1.379,4.772,4.137,5.727,6.151C70.211,69.845,77.565,65.673,76.573,64.648z"/>
		<path fill="#F7A7B5" d="M64.485,66.133c-2.865,1.869-5.939,3.076-8.378,3.394c-2.438,0.318-4.666,1.59-5.833,1.167
			c-1.165-0.424-1.484-2.016-2.227-1.273c-0.742,0.742-3.394,5.09-2.97,6.15c0.425,1.06,0,2.015,2.015,4.03
			c2.016,2.015,8.782,9.014,13.564,10.393c4.781,1.379,5.076,3.394,8.003,4.878c2.929,1.484,5.05,3.837,6.96,4.942
			c1.907,1.102,11.346,4.708,13.678,5.769c2.333,1.061,3.075,3.075,3.923,6.256c0.851,3.183,2.818,9.758,3.424,12.727
			c0.607,2.969-0.983,7.528-2.15,8.59c-1.167,1.061-2.545,1.696-2.333,2.227c0.211,0.529,1.804,0,1.804,0s-1.167,1.166,0.106,1.484
			c1.271,0.318,4.452,0.213,4.877-0.849c0.423-1.061,0.848-3.605,1.271-2.757c0.425,0.848,1.167,1.908,1.486,0.636
			c0.316-1.272-0.213-4.029,0-6.468c0.211-2.439,0.211-4.242,0.742-6.47c0.529-2.227,2.863-11.452,4.242-12.301
			c1.377-0.849,10.498-0.849,12.088-0.636c1.59,0.211,9.014-0.808,11.08-1.729c2.07-0.922,3.873-3.468,5.039-1.982
			s1.59,6.172,1.91,9.501c0.316,3.33-1.062,9.375-1.486,11.071c-0.424,1.697-2.121,5.011-1.484,5.634s1.592-1.18,2.121-0.861
			c0.529,0.317-0.105,1.803,1.484,1.378c1.592-0.425,2.016-1.909,2.652-2.651c0.635-0.741,0.213,1.062,0.74,0.213
			c0.531-0.848,0.742-2.758,0.955-5.408c0.213-2.652,0.32-5.302,1.061-7.424c0.742-2.121,0.529-7.424,0.955-8.166
			c0.424-0.742,5.301-7.316,7.211-14.739c1.908-7.424,2.547-16.438-1.91-22.163c-4.453-5.727-9.543-8.946-18.662-7.973
			c-9.121,0.973-25.346,4.366-29.587,3.412c-4.243-0.955-11.029-3.076-17.286-4.135C77.316,60.937,69.363,62.952,64.485,66.133z"/>
		<path fill="#F8B9C4" d="M79.437,70.163c-2.121-2.757-8.189-7.354-10.776-7.442c-2.586-0.087-5.81-0.124-5.448,1.927
			c0.361,2.052,1.166,4.242,2.12,6.257c0.955,2.016,5.729,5.833,7.319,7.635c1.59,1.803,2.41,3.182,4.014,1.909
			c1.604-1.272,2.772-3.5,2.772-6.893C79.437,70.163,79.437,70.163,79.437,70.163z"/>
		<path fill="#010101" d="M62.469,73.026c0.955-0.743,1.604-1.352,2.757-0.785c1.156,0.567,1.592,1.739,0.637,1.845
			c-0.954,0.106-1.166-1.432-1.908-1.034C63.212,73.451,62.469,73.026,62.469,73.026z"/>
		<path fill="none" stroke="#010101" stroke-linecap="round" stroke-miterlimit="10" d="M45.308,75.925
			c2.485,2.648,5.615,3.835,9.176,3.835"/>
	</g>
	<path opacity="0.2" fill="#010101" d="M157.346,71.817c-0.475,0.923-0.426,2.517-1.697,3.506c-1.273,0.99-2.121-3.817-3.176-4.666
		c-0.766-0.617-1.494,0.774-2.059,2.09c-0.377-0.72-0.805-1.411-1.307-2.055c-3.617-4.653-7.656-7.651-13.936-8.089
		c4.164,4.214,6.475,10.522,6.045,16.324c-0.768,10.327-9.344,17.129-19.002,19.315c-3.59,0.812-7.273,1.211-10.99,1.303
		c-4.666,0.782-9.949,3.147-11.089,7.868c-0.229,0.948-0.388,1.914-0.528,2.886c0.075,0.249,0.126,0.518,0.118,0.825
		c-0.179,6.961,0.025,14.216-0.924,21.119c-0.215,1.566-0.549,3.148-1.139,4.559c0.634-0.16,1.137-0.41,1.287-0.786
		c0.423-1.061,0.848-3.605,1.271-2.757c0.425,0.848,1.167,1.908,1.486,0.636c0.316-1.272-0.213-4.029,0-6.468
		c0.211-2.439,0.211-4.242,0.742-6.47c0.529-2.227,2.863-11.452,4.242-12.301c1.377-0.849,10.498-0.849,12.088-0.636
		c0.479,0.063,1.49,0.014,2.721-0.109c0.1,0.148,0.174,0.289,0.246,0.432c0.566-0.318,1.25-0.432,1.893-0.254
		c1.342,0.368,2.07,1.752,1.746,3.074c-0.084,0.348-0.225,0.658-0.389,0.953c-0.012,0.184-0.043,0.367-0.111,0.547
		c-0.588,1.573-1.434,3.068-2.475,4.403c-2.102,3.879-5.465,7.419-9.279,8.563c1.213,0.256,4.859-0.324,5.648-0.324
		c1.062,0,1.803-0.637,2.758-1.379c0.953-0.742,5.408-10.923,6.787-11.771c1.379-0.848,1.908-3.287,1.588-5.408
		c-0.021-0.151-0.031-0.307-0.045-0.46c2.066-0.925,3.865-3.462,5.031-1.979c1.166,1.485,1.59,6.172,1.91,9.501
		c0.316,3.33-1.062,9.375-1.486,11.071c-0.424,1.697-2.121,5.011-1.484,5.634s1.592-1.18,2.121-0.861
		c0.529,0.317-0.105,1.803,1.484,1.378c1.592-0.425,2.016-1.909,2.652-2.651c0.635-0.741,0.213,1.062,0.74,0.213
		c0.531-0.848,0.742-2.758,0.955-5.408c0.213-2.652,0.32-5.302,1.061-7.424c0.742-2.121,0.529-7.424,0.955-8.166
		c0.424-0.742,5.301-7.316,7.211-14.739c1.412-5.491,2.121-11.849,0.596-17.106c0.541-0.231,1.076-0.511,1.773,0.714
		c1.131,1.99,3.316,0.935,3.959-1.008C158.139,73.055,158.016,70.507,157.346,71.817z"/>
	<path opacity="0.2" fill="#010101" d="M68.868,74.91c-0.143,2.465-0.768,4.307,1.857,5.761s5,0.273,5,0.273
		s-1.774-1.262-3.512-2.791S68.868,74.91,68.868,74.91z"/>
</g>
</svg>
