<?xml version="1.0" encoding="utf-8"?>
<!-- Generator: Adobe Illustrator 16.0.0, SVG Export Plug-In . SVG Version: 6.00 Build 0)  -->
<!DOCTYPE svg PUBLIC "-//W3C//DTD SVG 1.1//EN" "http://www.w3.org/Graphics/SVG/1.1/DTD/svg11.dtd">
<svg version="1.1" id="Layer_1" xmlns="http://www.w3.org/2000/svg" xmlns:xlink="http://www.w3.org/1999/xlink" x="0px" y="0px"
	 width="200px" height="200px" viewBox="0 0 200 200" enable-background="new 0 0 200 200" xml:space="preserve">
<g>
	<g>
		<path fill="#9E6638" d="M38.854,35.835c-2.443-1.874-4.886-1.386-6.352-3.015c-1.466-1.628-3.259-2.443-2.77,0
			c0.488,2.443,1.709,6.189,4.519,6.678C37.062,39.987,38.854,35.835,38.854,35.835z"/>
		<path fill="#9E6638" d="M80.224,104.811c-2.118,3.583-7.166,10.099-10.587,12.541c-3.42,2.443-10.749,6.678-11.075,9.936
			c-0.325,3.258,0.979,10.587,2.605,12.053c1.63,1.466,2.77,2.443,2.118,4.234c-0.651,1.792-1.303,2.28,0.978,2.443
			c2.281,0.163,4.071,1.303,3.584,4.397c-0.489,3.095-1.303,7.492-2.443,8.632c-1.141,1.141-4.725-8.632-5.539-10.261
			c-0.813-1.628-1.79-3.745-2.931-4.234c-1.141-0.488-0.652-2.769-1.141-5.538c-0.488-2.769-0.651-8.143-1.791-10.261
			c-1.141-2.117-1.954-7.231,0-9.234c1.953-2.004,10.748-9.659,11.401-11.938c0.65-2.281,2.116-6.027,2.443-8.144
			C68.171,97.318,80.224,104.811,80.224,104.811z"/>
		<path fill="#9E6638" d="M135.276,96.081c-1.83,3.477,2.442,8.404,4.724,10.685c2.279,2.279,9.607,11.4,11.889,15.473
			c2.279,4.072,6.582,14.821,6.06,18.078c-0.521,3.258-3.128,11.564-5.571,13.356c-2.442,1.792-8.794,4.582-8.144,5.467
			c0.652,0.886,8.649,4.143,10.758,1.7c2.109-2.443,1.947-5.375,3.737-6.678c1.792-1.305,5.69-0.652,4.637-3.584
			c-1.053-2.932-0.728-11.891-0.891-15.147c-0.162-3.257,0-13.03-0.487-14.821c-0.489-1.792-8.796-17.59-8.632-20.522
			C153.518,97.156,137.557,91.747,135.276,96.081z"/>
		<path fill="#010101" d="M154.006,64.417c3.421-3.419,7.328-7.491,11.075-8.795c3.746-1.303,16.374-1.558,18.568,10.541
			c2.191,12.099-1.955,19.917-3.096,24.965c-1.141,5.049-0.977,10.262,0,13.193c0.978,2.932-3.095-0.917-3.583-3.391
			s-2.116-0.355-0.651,4.042c1.467,4.397,4.234,6.678,6.19,7.98c2.603,1.736-3.339,1.733-6.885-0.651
			c-4.843-3.258-3.215-9.865-4.519-9.411c-1.303,0.453-2.316,6.153-1.646,8.923c0.669,2.77-2.263,0.978-2.588-3.583
			c-0.326-4.561-1.14-13.519-0.162-15.636c0.976-2.118,1.303-7.818-0.815-5.212c-2.118,2.606-3.258-0.977-0.651-4.235
			c2.607-3.258,4.522-6.542,4.217-10.601c-0.307-4.058-3.823-10.573-11.513-4.872C150.259,73.376,154.006,64.417,154.006,64.417z"/>
		<path fill="#D1864A" d="M34.252,28.911c2.354,1.26,5.58,4.306,7.208,4.678c1.629,0.372,4.073,0.28,7.329,0
			c3.259-0.279,10.751-2.397,18.73,4.606c7.981,7.003,16.775,17.916,21.337,20.359c4.561,2.443,11.238,9.284,22.476,8.795
			c11.238-0.489,19.872-5.538,29.97-5.863s17.603-0.313,22.063,8.795c4.462,9.108,5.777,15.621,0,24.179
			c-5.776,8.559-4.637,15.903,1.228,19.723c5.863,3.82,4.182,6.424,0.978,10.335c-3.206,3.909-7.655,14.984-6.842,17.753
			c0.815,2.77,1.303,4.561,0.326,5.863s1.076,3.38,0.7,5.518c-0.374,2.138-1.823,8.652-4.764,6.209
			c-2.939-2.443-4.895-11.4-3.917-16.449c0.978-5.05,4.628-11.728,6.874-16.287c2.246-4.561-1.533-10.572-4.855-12.941
			c-3.32-2.369-11.953-9.303-13.093-11.292c-1.141-1.99-3.259-3.223-11.892,0c-8.632,3.223-20.359,5.827-27.852,5.502
			c-7.491-0.325-13.681-2.769-13.681-0.813c0,1.953,0.163,17.102,0.814,19.545c0.651,2.442,0.325,7.491-0.162,9.609
			c-0.489,2.117-0.326,8.307,0.162,10.098c0.487,1.792,1.791,6.516,0.651,8.633s-4.724,3.737-4.886,6.266
			c-0.164,2.529-3.257,3.018-7.818,3.18c-4.561,0.164-6.678-1.303-2.28-4.56c4.397-3.258,8.145-5.376,8.307-7.003
			c0.162-1.629,1.792-4.724,1.466-7.167c-0.325-2.443-1.955-8.795-2.606-11.728c-0.651-2.932-0.488-7.166-0.978-8.958
			c-0.487-1.791-2.768-16.776-4.56-17.915c-1.791-1.141-10.099-4.664-12.379-8.521c-2.28-3.858-4.233-8.582-3.094-13.142
			c1.141-4.56,0.162-9.609-0.978-12.378c-1.141-2.769-3.826-13.519-5.415-15.473s-3.217,0.978-6.312,3.746
			c-3.094,2.769-6.677,5.538-8.469,8.47c-1.791,2.932-5.213,5.211-8.389,4.235c-3.175-0.978-4.642-4.235-3.664-7.33
			c0.978-3.095,4.723-15.798,4.723-17.59s0.327-3.746,0.814-5.538c0.488-1.792,1.059-5.863,2.728-6.84
			c1.671-0.977,2.811-1.232,1.671-3.629C34.782,31.192,32.699,28.081,34.252,28.911z"/>
		<path fill="#010101" d="M43.197,31.735c3.607-0.637,5.282,1.91,6.607,1.737s4.033-1.431,7.942-0.933
			c3.91,0.499,12.271,4.733,15.093,7.665c2.823,2.932,9.557,9.881,11.293,12.053c1.737,2.171,8.036,6.84,11.076,8.686
			c3.039,1.846,5.428,4.468,3.148,5.22c-2.28,0.752-2.932-1.203-4.234,0.644c-1.303,1.846-2.279,4.207-2.607,5.741
			c-0.324,1.534-1.411,6.204-3.256,7.072c-1.847,0.869,1.302-9.665-0.108-9.99c-1.412-0.326-1.304,8.144-2.607,8.687
			c-1.303,0.543,0.436-6.949-1.411-8.035c-1.845-1.086-1.086,3.583-2.498,3.583c-1.411,0-0.868,2.171-2.279,2.28
			c-1.412,0.109,0-8.144-0.978-8.904c-0.977-0.76-0.543,3.366-2.171,3.041c-1.629-0.326-1.847-7.492-2.823-8.036
			c-0.978-0.542-0.289,5.104-2.153,5.212c-1.865,0.108-1.322-10.207-2.625-10.641c-1.303-0.434-2.171,3.149-2.823,3.04
			c-0.65-0.108-0.542-7.709-1.628-9.447c-1.086-1.737-2.063-4.125-2.933-6.081c-0.867-1.954-1.737,2.389-2.498,0.543
			c-0.758-1.846-1.41-6.732-3.146-7.383c-1.739-0.651-5.432-2.932-6.626-2.932s-6.188,0.751-6.838-0.109
			C41.46,33.589,39.505,32.386,43.197,31.735z"/>
		<path fill="#010101" d="M28.539,67.133c1.385,0.353,2.279,2.063,1.846,3.149s-1.846,2.497-1.846,1.52S27.61,66.896,28.539,67.133z
			"/>
		<path fill="#010101" d="M36.249,49.434c0.155-1.419-0.218-2.172,1.52-2.28c1.737-0.109,2.792,0.542,3.242,0
			c0.449-0.543-0.202,1.52-1.396,2.28C38.421,50.194,36.19,49.965,36.249,49.434z"/>
		<path fill="#9E6638" d="M51.559,56.763c5.048-5.048-0.942-10.309-3.421-13.192c-1.304-1.517,6.863,3.317,7.196,7.817
			S51.559,56.763,51.559,56.763z"/>
		<path fill="#9E6638" d="M87.554,103.834c2.28-3.421,3.421-11.564,1.792-15.148c0,0,3.487,3.877,1.654,10.373
			S87.554,103.834,87.554,103.834z"/>
		<path fill="#9E6638" d="M75.338,105.951c-0.171-2.965-6.4-6.841-8.815-12.867c0,0-0.416,3.522,3.614,7.996
			S75.338,105.951,75.338,105.951z"/>
		<path fill="#FFFFFF" stroke="#010101" stroke-linecap="round" stroke-miterlimit="10" d="M37.68,66.674
			c-0.324,2.267-2.003,4.873-3.777,6.907"/>
	</g>
	<path opacity="0.2" fill="#010101" d="M51.895,57.448c0.585-0.538,0.978-0.971,1.81-1.796c2.713-2.985,1.691-5.255,0.239-7.516
		c-1.693-2.636-5.338-4.714-8.535-6.315c-0.001,0.024,0.001,0.048,0,0.073c0.142,0.222,0.263,0.472,0.337,0.775
		c1.942,7.985-1.91,15.675-5.777,22.465c-1.169,2.052-2.885,4.492-4.181,7.753c0.885-0.734,1.659-1.633,2.253-2.606
		c1.792-2.932,5.375-5.701,8.469-8.47C49.013,59.573,50.556,57.229,51.895,57.448z"/>
	<path opacity="0.2" fill="#010101" d="M64.263,146.018c-2.28-0.163-1.629-0.651-0.978-2.443c0.651-1.791-0.488-2.769-2.118-4.234
		c-1.627-1.466-2.931-8.795-2.605-12.053c0.326-3.258,7.655-7.492,11.075-9.936c1.74-1.242,3.897-3.539,5.88-5.967
		c-1.011-2.443-2.705-4.07-4.966-6.305c-1.22,6.053-9.215,11.854-12.652,15.587c-3.104,3.37-2.234,6.917-1.112,11.002
		c0.891,3.243,1.443,6.511,2.222,9.766c1.263,5.286,3.916,10.896,7.56,15.133c0.551-1.831,0.977-4.239,1.279-6.152
		C68.334,147.32,66.544,146.181,64.263,146.018z"/>
	<path opacity="0.2" fill="#010101" d="M164.593,114.184c-5.864-3.82-7.004-11.164-1.228-19.723c1.849-2.739,2.965-5.268,3.49-7.74
		c0.149,0.017,0.266,0.128,0.357,0.298c0.144-0.886,0.298-1.769,0.43-2.676c0.021-0.144,0.026-0.287,0.041-0.43
		c-0.173-1.162-0.334-2.325-0.476-3.492c-0.064,0.102-0.123,0.205-0.189,0.306c-0.472-3.254-1.779-6.62-3.653-10.446
		c-0.825-1.685-1.756-3.054-2.786-4.172c0.366-0.161,0.72-0.29,1.062-0.391c-1.794-1.181-3.59-2.359-5.381-3.546
		c-0.201,0.198-0.403,0.396-0.603,0.594c-1.039-0.405-2.144-0.692-3.303-0.901c2.969,3.524,4.798,8.222,5.644,12.676
		c0.774,4.073,1.25,8.332,0.58,12.457c-0.887,5.454-4.365,11.702-3.474,17.377c0.12,0.187,0.229,0.389,0.307,0.627
		c0.764,2.346,1.425,4.723,2.274,7.04c0.846,0.899,1.621,1.857,2.278,2.912c3.462,5.555,3.025,11.809,0.035,17.507
		c-2.27,4.326-4.929,8.445-5.15,13.49c-0.216,4.896,0.619,9.382,2.708,13.738c1.26-1.428,1.954-4.646,2.197-6.033
		c1.917-0.678,4.492-0.629,3.611-3.078c-1.053-2.932-0.728-11.891-0.891-15.147c-0.061-1.208-0.075-3.314-0.097-5.575
		c1.053-2.167,2.184-4.107,3.192-5.337C168.774,120.607,170.456,118.004,164.593,114.184z"/>
	<path opacity="0.2" fill="#010101" d="M135.639,100.989c0.498-0.195,1.826-0.031,2.298,0.157c1.919,0.763,1.919,2.062,3.242,3.152
		c-0.651-0.886-1.021-2.04-1.511-3.08c-2.098-4.457-2.381-9.571-2.115-14.577c-0.087-1.339,0.181-2.859,0.281-3.934
		c0.011-0.114,0.021-0.233,0.03-0.35c-1.492,1.458-2.284,3.5-2.953,5.473c-0.203,0.598-0.541,1.026-0.945,1.312
		c-0.018,0.063-0.038,0.125-0.055,0.188c-0.198,0.73-0.619,1.208-1.132,1.483c-1.505,2.553-3.384,4.818-6.146,6.266
		c-5.072,2.657-10.752,3.819-16.374,4.669c-4.056,0.614-11.188,1.702-15.303-0.384C93.656,101.613,92.19,100.83,92,99
		c-0.034-0.326-0.049-0.652-0.078-0.978c-0.372-1.183-0.339-2.477-0.33-3.876c-0.871-2.872-1.55-5.428-4.038-7.479
		c0.279,0.773-0.067,2.634,0,3.333c0.22,2.274-0.523,3.567-0.794,5.836c-0.532,4.468-3.328,8.236-4.102,12.536
		c-0.073,5.662-0.542,11.308,0.009,16.962c0.024,0.253,0.006,0.479-0.03,0.692c0.325,3.047,0.649,6.093,0.98,9.14
		c0.654,6.014,2.772,14.221-0.125,19.93c-2.052,4.043-5.547,6.773-8.75,9.823c0.195-0.001,0.39-0.001,0.596-0.009
		c4.562-0.162,7.654-0.65,7.818-3.18c0.162-2.528,3.746-4.148,4.886-6.266s-0.164-6.841-0.651-8.633
		c-0.488-1.791-0.651-7.98-0.162-10.098c0.487-2.118,0.813-7.167,0.162-9.609c-0.651-2.443-0.814-17.592-0.814-19.545
		c0-1.955,6.189,0.488,13.681,0.813c7.492,0.325,19.22-2.279,27.852-5.502c3.405-1.271,5.786-1.842,7.504-1.954
		C135.62,100.955,135.631,100.972,135.639,100.989z"/>
	<path opacity="0.2" fill="#010101" d="M57.078,42.835c0.243,0.739,0.143,1.372-0.156,1.871c0.617,0.919,1.126,1.931,1.519,3.035
		c0.941-0.2,2,0.046,2.718,0.997c2.062,2.731,2.635,5.589,3.078,8.917c0.145,1.091,0.286,2.2,0.55,3.271
		c0.064,0.297,0.16,0.584,0.242,0.876c1.078-0.845,3.044-0.49,3.63,0.77c0.807,1.732,1.676,3.361,2.638,4.912
		c0.278,0.125,0.552,0.311,0.806,0.583c3.021,3.226,7.091,5.523,11,7.543c0.648,0.334,5.253,2.469,7.242,3.013
		c0.262-0.178,0.59-0.307,0.991-0.366c-0.701,0.103,0.039-0.319,0.416-1.011c0.323-0.594,0.641-1.19,0.933-1.8
		c0.562-1.177,1.093-2.367,1.627-3.556c0.984-2.189,2.853-4.571,2.689-7.055c-0.059-0.897,0.294-1.534,0.829-1.93
		c-0.712-0.674-1.629-1.358-2.62-1.96c-3.04-1.846-9.339-6.515-11.076-8.686c-1.736-2.172-8.47-9.122-11.293-12.053
		c-2.822-2.932-11.183-7.166-15.093-7.665c-3.896-0.497-6.598,0.751-7.928,0.93c-0.008,0.001-0.015,0.002-0.022,0.003
		c-1.323,0.162-2.998-2.37-6.596-1.738c0.638,1.242,1.127,2.563,1.489,3.933C49.553,35.603,55.455,37.898,57.078,42.835z"/>
</g>
</svg>
