<?xml version="1.0" encoding="utf-8"?>
<!-- Generator: Adobe Illustrator 16.0.0, SVG Export Plug-In . SVG Version: 6.00 Build 0)  -->
<!DOCTYPE svg PUBLIC "-//W3C//DTD SVG 1.1//EN" "http://www.w3.org/Graphics/SVG/1.1/DTD/svg11.dtd">
<svg version="1.1" id="Layer_1" xmlns="http://www.w3.org/2000/svg" xmlns:xlink="http://www.w3.org/1999/xlink" x="0px" y="0px"
	 width="200px" height="200px" viewBox="0 0 200 200" enable-background="new 0 0 200 200" xml:space="preserve">
<g>
	<g>
		<path fill="#010101" d="M60.872,103.204c0.606,2.665,3.836,9.742,4.634,12.617c0.799,2.876,4.472,19.807,4.153,21.884
			c-0.118,0.766-0.928,1.4-1.835,2.001c-1.556,1.03,5.781,1.798,6.899,0.359c1.117-1.438,3.382-24.942-1.446-33.188
			C70.557,102.232,60.618,102.08,60.872,103.204z"/>
		<path fill="#CDCCCC" d="M75.888,109.592c-0.603-1.405-2.345-2.7-4.438-3.771c-0.196,3.372,2.161,9.884,3.159,11.703
			c1.198,2.182,0.958,6.285,1.119,7.803c0.159,1.519-1.198,6.47-1.598,7.587s-0.318,5.67-1.356,6.549
			c-0.699,0.592-1.998-0.109-3.583-0.857c-1.362,1.545-5.057,2.616-3.915,4.371c1.347,2.077,7.737,0.8,8.855-0.639
			c1.117-1.438,2.556-5.111,2.396-7.667C76.367,132.115,77.806,114.064,75.888,109.592z"/>
		<path fill="#010101" d="M41.689,75.295c-1.739,1.233-4.136,6.504-3.338,6.824c0.8,0.319,8.426-2.457,9.964-4.023
			c1.538-1.567,2.455-4.895,0-5.228C45.86,72.536,41.689,75.295,41.689,75.295z"/>
		<path fill="#010101" d="M119.814,95.377c-0.579,3.48,3.993,10.383,6.069,13.416c2.075,3.036,8.466,7.668,11.181,10.542
			c2.717,2.876,6.868,7.828,6.709,10.543c-0.158,2.716,5.997,4.515,6.162,3.223c0.333-2.594,0.334-5.614-0.093-8.495
			c-0.64-4.312-9.264-19.965-12.778-24.597S120.452,91.544,119.814,95.377z"/>
		<path fill="#010101" d="M45.379,46.021c-1.242,1.502-3.673,8.305-3.673,10.062c0,1.757-0.318,3.195,1.838,3.515
			c2.154,0.318,7.428-1.758,7.267-3.515c-0.159-1.756-1.758-5.111-2.396-6.709C47.776,47.777,46.18,45.056,45.379,46.021z"/>
		<path fill="#333333" d="M46.252,80.362c0.331,0.475,1.781,1.085,2.307,1.786c0,0,6.584-1.563,7.384,0.681
			c0.958,2.687,5.956,18.672,7.844,20.038s4.638-4.115,7.192-2.357c1.365,0.939,0.365,11.074,2.216,12.067
			c1.613,0.866,3.055,1.809,3.701,2.925c1.001,1.727,3.188,7.437,4.512,11.627c0.513,1.624,8.828,0.897,8.329-4.201
			c-0.616-6.302-0.928-10.678-0.591-11.418c0.699-1.538,1.03-3.564,3.778-3.833c0.393-0.038,3.858-3.238,4.356-3.183
			c5.603,0.622,6.319,3.139,7.614,3.193c2.493,0.105,4.794-0.471,6.293-0.97c3.834-1.279,6.265-6.435,9.363-7.291
			c3.097-0.855,7.248-0.376,8.049,1.062c0.799,1.438,4.312,7.348,8.146,11.341c3.834,3.992,7.987,8.26,9.902,11.639
			c0.793,1.396,1.832,3.335,2.732,5.344c1.276,2.849,7.678,8.646,7.696,6.018c0.031-4.299-0.167-9.095-0.365-10.383
			c-0.319-2.075-1.276-2.075-3.035-4.472c-1.757-2.395-5.244-10.542-3.5-15.175c1.743-4.632,0.333-10.063,0-14.694
			c-0.333-4.632-2.889-8.944-2.09-8.625c0.8,0.318,3.035,1.599,5.271,4.792c2.237,3.194,4.153,7.027,8.146,8.786
			c3.993,1.756,14.216-0.961,16.452-5.592c2.236-4.633,2.236-13.098,0.798-14.057c-1.437-0.959-4.472,4.312-9.584,5.751
			c-5.11,1.437-7.507,2.075-11.819-2.397c-4.312-4.472-7.826-6.067-12.458-7.825s-7.827-5.111-16.451-4.312
			c-8.626,0.798-19.648,4.312-28.593,4.312s-8.785-1.758-14.535-1.118s-11.979-1.839-14.855-3.314
			c-2.874-1.478-8.636-5.245-9.589-6.875c-0.954-1.63-3.029-3.707-3.349-4.984c-0.318-1.279-2.715-10.702-5.111-10.063
			s-2.077,9.742-3.355,10.861c-1.276,1.118-2.714,0.32-5.909,2.077s-5.432,5.11-5.591,7.188c-0.159,2.075,0.479,3.192-1.596,4.471
			c-2.078,1.279,2.715,8.785,4.151,8.306c1.438-0.479,4.14-2.714,6.144-2.876c2.003-0.159,3.441,1.121,0.726,2.717
			c-2.717,1.597-8.785,4.951-10.063,4.472c-1.278-0.479-0.957,2.557,2.237,2.077C42.346,83.397,46.252,80.362,46.252,80.362z"/>
		<path fill="#F7A7B5" d="M38.602,77.858c-2.166,0.825-3.364,2.345-3.684,3.542c-0.32,1.197-0.48,2.315,0.559,2.476
			s2.875-0.479,3.675-1.438c0.797-0.958,1.803-2.314,2.538-2.956c0.736-0.638,1.934-1.916,2.652-2.395
			c0.718-0.479-0.442-2.007-1.292-1.204C41.689,77.168,38.602,77.858,38.602,77.858z"/>
		<path fill="#FFFFFF" d="M42.904,67.104c0.479-0.797,0.53-1.595,1.662-1.755s1.852,0.239,2.65,0.877
			c0.799,0.639-0.478,0.719-1.838,0.878C44.021,67.265,42.904,67.104,42.904,67.104z"/>
		<circle fill="#010101" cx="44.741" cy="66.191" r="0.878"/>
		<path fill="#CDCCCC" d="M143.763,129.599c0.003,0.094,0.016,0.19,0.011,0.279c-0.158,2.716-0.959,8.146-2.396,9.425
			c-1.437,1.277-1.108,2.075,2.401,1.917c3.509-0.161,4.467-1.598,5.425-4.632c0.409-1.296,0.701-2.881,0.853-4.609
			C148.316,132.085,145.766,130.875,143.763,129.599z"/>
		<path fill="#333333" d="M34.039,74.692c0.145-1.234-1.1-1.741-3.334-1.824c-0.518,0.564-0.801,1.109-0.659,1.583
			c0.363,1.212,1.188,2.422,2.538,3.075C33.515,76.816,33.904,75.843,34.039,74.692z"/>
		<path fill="#F3F3F3" d="M46.379,56.324c-0.968,0.804-2.021,1.774-2.517,2.314c-0.878,0.959-3.594,5.271-4.241,6.674
			c-0.457,0.993-1.067,1.559-2.176,2.059c-0.142,0.645-0.516,1.211-1.488,1.81c-1.46,0.9-4.023,2.35-5.252,3.688
			c2.234,0.083,3.479,0.59,3.334,1.824c-0.135,1.15-0.524,2.124-1.455,2.834c0.43,0.209,0.915,0.363,1.455,0.439
			c2.237,0.319,4.633,0,6.069-0.479c0.72-0.239,1.754-0.917,2.858-1.556c0.053-1.203-0.108-2.472-0.981-3.635
			c-1.079-1.438-2.595-2.953-1.877-4.313c0.72-1.357,1.119-3.353,1.877-4.552c0.76-1.197,3.713-4.793,4.992-5.91
			c0.624-0.546,1.056-1.149,1.338-1.623C47.771,56.117,47.157,56.172,46.379,56.324z"/>
		<path fill="#F3F3F3" d="M73.094,104.88c-0.166-1.987,1.437-5.909,2.554-7.839c1.119-1.929-0.159-2.383-1.277-3.821
			c-1.117-1.437-4.631-2.715-5.488-1.676c-0.857,1.037-0.101,3.994-0.661,5.988c-0.559,1.996-3.273,0.88-5.19-0.491
			c-1.918-1.371-0.958-3.421-1.198-5.337c-0.24-1.919-2.795-2.717-3.109-4.714c-0.312-1.997-0.324-3.674-0.484-5.43
			c-0.159-1.756,0.559-3.355,0.479-4.792c-0.079-1.438-1.117,0.399-2.795,1.118c-1.677,0.718-3.114-0.479-4.632-0.56
			c-1.11-0.059-3.099,2.172-4.645,3.586c2.335,3.225,8.055,10.365,8.956,12.896c0.958,2.687,2.586,9.945,4.474,11.312
			s5.271,2.874,7.826,4.632c1.844,1.268,4.98,2.454,7.108,3.915c-0.133-0.992-0.428-2.187-0.878-3.355
			C73.333,108.235,73.259,106.867,73.094,104.88z"/>
		<path fill="#F3F3F3" d="M85.87,127.083c-1.596,1.132-2.811-0.508-5.109-1.92c0.826,2.43,1.491,4.659,1.677,5.832
			c0.479,3.035,1.917,10.543,0.959,11.98c-0.959,1.438-3.994,4.793-2.076,5.911c1.917,1.117,6.068,0.797,7.188-1.118
			c1.117-1.918,3.193-7.987,2.714-11.181c-0.274-1.83-1.113-9.344-1.668-15.686C88.188,122.107,87.479,125.943,85.87,127.083z"/>
		<path fill="#333333" d="M39.621,65.312c0.647-1.403,3.363-5.715,4.241-6.674c0.495-0.54,1.549-1.511,2.517-2.314
			c-0.844,0.167-1.88,0.451-3.235,1.197c-3.195,1.757-5.432,5.11-5.591,7.188c-0.084,1.103,0.053,1.931-0.107,2.661
			C38.554,66.871,39.164,66.306,39.621,65.312z"/>
		<path fill="#F3F3F3" d="M92.443,107.75c0.504-0.099,1.098-0.132,1.813-0.074c2.659,0.213,7.583,0.284,11.709-0.07
			c-2.981-1.359-5.74-3.831-8.116-4.162C94.926,103.036,93.911,105.636,92.443,107.75z"/>
		<path fill="#F3F3F3" d="M178.753,75.41c-1.281-0.854-3.831,3.237-7.989,5.155c0.296,1.52,0.391,2.627,3.677,3.391
			c2.053,0.477,3.613,0.982,4.845,1.18C180.088,80.835,179.806,76.112,178.753,75.41z"/>
		<path fill="#F3F3F3" d="M147.967,125.897c1.81,3.494,3.821,8.119,3.314,10.531c-0.641,3.033-3.195,6.011-1.917,7.638
			c1.276,1.624,6.708,0.707,7.347-2.828c0.294-1.626,0.385-4.873,0.367-8.105c-0.931-0.539-1.94-1.388-3.163-2.218
			C151.9,129.552,150.669,128.35,147.967,125.897z"/>
	</g>
	<path opacity="0.2" fill="#010101" d="M46.765,80.801c-0.039,0.036-0.081,0.077-0.119,0.112c0.755,1.043,1.864,2.496,3.05,4.069
		c11.404-3.104,10.518-17.773,9.496-27.669c-0.771-0.993-1.494-1.954-1.672-2.667c-0.3-1.204-2.441-9.624-4.691-10.073
		c2.357,4.104-0.863,11.892-2.444,15.709c-2.104,5.079-5.149,9.181-9.01,12.368c-2.081,2.423-4.612,4.336-7.637,5.249
		c0.102,0.021,0.196,0.052,0.302,0.066c1.599,0.229,3.272,0.127,4.625-0.122c-0.036,0.009-0.062,0.015-0.062,0.015
		c-2.166,0.825-3.364,2.345-3.684,3.542c-0.32,1.197-0.48,2.315,0.559,2.476c0.468,0.072,1.098-0.024,1.721-0.232
		c0.467,0.236,1.106,0.359,1.954,0.232c3.194-0.479,7.101-3.514,7.101-3.514C46.347,80.497,46.536,80.645,46.765,80.801z"/>
	<path opacity="0.2" fill="#010101" d="M140.724,115.75c-6.465-8.695-13.888-16.513-14.588-27.326
		c-5.687,2.404-12.294,3.34-18.021,3.573c-3.474,0.142-6.63-0.151-9.583-0.832c-1.23,0.022-2.446-0.097-3.652-0.296
		c-0.44,0.173-0.961,0.208-1.545,0.042c-3.604-1.028-12.075-5.179-14.6-0.434c-0.154,0.291-0.273,0.597-0.391,0.902
		c-0.032,0.662,0.046,1.374,0.18,2.104c4.772,11.892,9.244,23.604,8.439,36.548c0.204,2.3,0.079,4.534-0.237,6.755
		c-0.058,4.133-0.201,9.319-2.621,12.741c1.794,0.019,3.698-0.554,4.402-1.759c1.117-1.918,3.193-7.987,2.714-11.181
		c-0.274-1.83-1.113-9.344-1.668-15.686l-0.01,0.01c-0.484-5.206-0.698-8.744-0.398-9.402c0.678-1.491,1.029-3.427,3.552-3.789
		c0.451-0.066,0.954-0.094,1.56-0.045c2.429,0.194,6.742,0.267,10.616,0.008c0.008,0.001,0.014,0.004,0.021,0.004
		c2.493,0.105,4.794-0.471,6.293-0.97c3.834-1.279,6.265-6.434,9.363-7.291c0.534,1.382,1.288,2.85,2.088,4.249
		c0.821-0.384,1.815-0.32,2.629,0.557c4.02,4.332,7.543,9.093,11.557,13.426c2.959,3.194,7.039,6.262,8.57,10.499
		c1.56,4.316,1.733,11.477-3.27,13.054c0.445,0.034,0.992,0.039,1.653,0.009c3.509-0.161,4.467-1.598,5.425-4.632
		c0.182-0.574,0.336-1.211,0.469-1.887C148.563,127.729,144.062,120.241,140.724,115.75z"/>
	<path opacity="0.2" fill="#010101" d="M76.888,118.886c-0.913-2.866-1.805-5.731-2.062-8.743c-1.397-1.202-2.995-2.256-4.586-3.294
		c-0.417,0.036-0.844-0.015-1.251-0.19c-3.374-1.459-5.831-3.904-7.814-6.767c-2.214-2.211-4.195-4.616-5.725-7.383
		c-0.137,0.049-0.273,0.086-0.411,0.125c0.254,0.454,0.448,0.853,0.563,1.175c0.958,2.687,2.586,9.945,4.474,11.312
		c0.506,0.366,1.123,0.743,1.799,1.131c0.114,0.305,0.238,0.625,0.362,0.945c0.092,0.048,0.183,0.083,0.275,0.146
		c0.428,0.287,0.838,0.59,1.24,0.898c0.212,0.161,0.413,0.324,0.615,0.486c0.878,0.701,1.735,1.424,2.645,2.115
		c0.558,0.424,0.862,0.967,0.988,1.533c3.423,4.423,4.306,9.607,4.28,16.313c-0.021,5.329-0.385,14.168-6.976,14.319
		c1.396,2.027,7.716,0.759,8.827-0.671c1.117-1.438,2.556-5.111,2.396-7.667C76.428,133.078,76.945,125.477,76.888,118.886z"/>
	<path opacity="0.2" fill="#010101" d="M179.744,79.864c-0.003-0.215-0.009-0.424-0.018-0.63c-0.003-0.079-0.005-0.161-0.009-0.239
		c-0.015-0.271-0.034-0.532-0.059-0.782c-0.006-0.062-0.014-0.119-0.021-0.18c-0.021-0.193-0.046-0.377-0.073-0.554
		c-0.011-0.072-0.022-0.143-0.035-0.212c-0.032-0.182-0.067-0.354-0.107-0.514c-0.008-0.034-0.015-0.072-0.023-0.105
		c-0.049-0.186-0.103-0.352-0.161-0.503c-0.016-0.041-0.033-0.075-0.05-0.114c-0.047-0.107-0.096-0.204-0.148-0.288
		c-0.02-0.033-0.039-0.066-0.061-0.095c-0.071-0.1-0.146-0.185-0.227-0.238c-0.085-0.057-0.177-0.089-0.273-0.104
		c-0.033-0.006-0.071,0.001-0.105,0c-0.003,0-0.007,0.001-0.01,0.001c-0.001,0.007-0.002,0.013-0.003,0.02
		c0.285,6.086-2.636,11.665-9.353,13.05c-7.284,1.503-13.988-3.678-16.296-10.278c-2.652-1.884-6.768-4.004-10.247-4.739
		c-0.673,0.161-1.313,0.427-1.892,0.851c-0.301,0.221-0.555,0.473-0.771,0.748c-0.197,0.562-0.359,1.155-0.496,1.754
		c0.001,0.011,0.001,0.021,0.002,0.033c0.493,4.664,2.104,9.104,2.691,13.755c1.337,10.596,2.685,20.74,7.908,30.238
		c0.229,0.417,0.319,0.825,0.32,1.213c3.315,6.852,6.119,15.431,3.476,22.487c1.433-0.531,2.716-1.592,3.007-3.2
		c0.242-1.339,0.345-3.78,0.364-6.405c0-0.001,0.001-0.002,0.001-0.004c0-0.059,0-0.117,0.001-0.176
		c0.001-0.192,0.002-0.383,0.002-0.576v-0.323c-0.001-0.207,0-0.413-0.001-0.621l-0.001-0.001c-0.021-3.792-0.193-7.565-0.366-8.686
		c-0.319-2.075-1.276-2.075-3.035-4.472c-1.757-2.395-5.244-10.542-3.5-15.175c1.743-4.632,0.333-10.063,0-14.694
		c-0.333-4.632-2.889-8.944-2.09-8.625c0.8,0.318,3.035,1.599,5.271,4.792c2.237,3.194,4.153,7.027,8.146,8.786
		c3.993,1.756,14.216-0.961,16.452-5.592c0.599-1.241,1.033-2.759,1.326-4.332c0,0,0.003,0.001,0.004,0.001
		c0.036-0.191,0.066-0.385,0.099-0.578c0.02-0.123,0.04-0.245,0.059-0.368c0.04-0.271,0.076-0.54,0.108-0.81
		c0.015-0.127,0.027-0.253,0.041-0.379c0.022-0.214,0.042-0.426,0.06-0.638c0.01-0.117,0.021-0.233,0.028-0.35
		c0.021-0.307,0.039-0.611,0.05-0.91c0.003-0.075,0.003-0.146,0.005-0.221c0.008-0.24,0.012-0.477,0.012-0.708
		C179.746,80.07,179.745,79.968,179.744,79.864z"/>
</g>
</svg>
