<?xml version="1.0" encoding="utf-8"?>
<!-- Generator: Adobe Illustrator 16.0.0, SVG Export Plug-In . SVG Version: 6.00 Build 0)  -->
<!DOCTYPE svg PUBLIC "-//W3C//DTD SVG 1.1//EN" "http://www.w3.org/Graphics/SVG/1.1/DTD/svg11.dtd">
<svg version="1.1" id="Layer_1" xmlns="http://www.w3.org/2000/svg" xmlns:xlink="http://www.w3.org/1999/xlink" x="0px" y="0px"
	 width="200px" height="200px" viewBox="0 0 200 200" enable-background="new 0 0 200 200" xml:space="preserve">
<g>
	<g>
		
			<line fill="none" stroke="#E9C6A9" stroke-linecap="round" stroke-miterlimit="10" x1="63.338" y1="91.977" x2="57.773" y2="87.911"/>
		
			<line fill="none" stroke="#E9C6A9" stroke-linecap="round" stroke-miterlimit="10" x1="62.61" y1="93.204" x2="57.773" y2="90.605"/>
		
			<line fill="none" stroke="#E9C6A9" stroke-linecap="round" stroke-miterlimit="10" x1="61.595" y1="97.608" x2="56.571" y2="99.031"/>
		
			<line fill="none" stroke="#E9C6A9" stroke-linecap="round" stroke-miterlimit="10" x1="62.61" y1="99.031" x2="57.773" y2="103.08"/>
		
			<line fill="none" stroke="#E9C6A9" stroke-linecap="round" stroke-miterlimit="10" x1="63.338" y1="99.906" x2="55.695" y2="109.098"/>
		
			<line fill="none" stroke="#E9C6A9" stroke-linecap="round" stroke-miterlimit="10" x1="63.765" y1="101.791" x2="59.445" y2="110.046"/>
		
			<line fill="none" stroke="#E9C6A9" stroke-linecap="round" stroke-miterlimit="10" x1="64.876" y1="102.573" x2="62.61" y2="110.848"/>
		<path fill="#9E6638" d="M89.724,65c-0.219-5.361,0.768-11.162-3.172-11.052c-3.94,0.109-5.8,6.018-6.238,8.097
			s-0.219,11.599-0.875,13.24c-0.657,1.642-1.532,4.814,0,5.252c1.531,0.438,7.878-3.83,8.644-5.799
			C88.85,72.77,89.724,65,89.724,65z"/>
		<path fill="#9E6638" d="M83.816,125.184c1.75,3.062,2.626,5.251,2.188,6.783s-0.765,3.174-3.829,3.721s-5.69,2.736-5.581,3.939
			s4.401,1.203,6.577,1.312s8.852-7.768,8.632-9.52C91.584,129.669,83.816,125.184,83.816,125.184z"/>
		<path fill="#9E6638" d="M111.391,133.391c-0.767,1.749-2.846,3.61-2.954,4.704c-0.11,1.094,0.765,2.407,4.485,2.188
			c3.722-0.219,5.471-5.907,3.722-6.893C114.893,132.405,111.391,133.391,111.391,133.391z"/>
		<path fill="#D1864A" d="M100.667,53.947c-2.048-2.643-4.189-1.654-7.143,1.519c-2.954,3.174-5.987,8.659-7.301,12.489
			c-1.313,3.83-2.407,7.004-2.845,8.645c-0.437,1.642,0.769,5.471,1.807,6.565c1.038,1.094,5.323,4.705,6.792,3.173
			c1.468-1.532,5.407-8.972,7.269-14.334c1.86-5.362,2.516-11.818,2.407-14.006C101.543,55.809,101.648,55.214,100.667,53.947z"/>
		<path fill="#E9C6A9" d="M99.246,55.152c-1.735,1.551-3.393,2.955-4.815,6.127c-1.423,3.173-4.376,17.571-3.283,19.29
			c1.094,1.72,4.596-4.846,6.019-8.566c1.422-3.721,3.063-9.957,3.063-12.364C100.229,57.231,100.468,54.059,99.246,55.152z"/>
		<path fill="#D1864A" d="M93.664,89.949c2.845,1.641,9.082,0.328,14.006-1.204c4.925-1.532,14.882-1.423,23.745,4.377
			c8.864,5.799,14.882,10.067,17.07,17.288c2.188,7.222,3.61,12.913,3.283,15.43c-0.33,2.516,1.422-0.438,2.406,1.75
			c0.983,2.189,0.219,6.153-2.188,8.712s-2.734,3.264-6.236,3.677c-3.502,0.414-25.387,1.073-28.451,0.963
			c-3.063-0.111-1.75-1.644-4.158-3.065c-2.406-1.423-9.41-7.003-10.832-6.565c-1.422,0.438-3.282,4.377-5.69,6.675
			c-2.406,2.298-0.875,2.325-6.126,2.968c-5.252,0.644-11.6,1.327-12.256,0c-0.657-1.326-0.219-3.818,4.487-4.651
			c4.705-0.833,6.17-5.106,5.799-7.07c-0.37-1.964-1.86,1.86-7.878-4.048c-6.019-5.91-9.41-15.43-9.41-17.946
			s-0.438-4.485,1.86-5.034C75.391,101.657,93.664,89.949,93.664,89.949z"/>
		<path fill="#9E6638" d="M119.816,137.303c4.288-0.379,8.328-0.698,12.387-0.053c-0.076-0.209-0.158-0.414-0.227-0.633
			c-0.115-0.362-0.167-0.701-0.191-1.029c-0.314-0.752-0.603-1.516-0.86-2.303c-3.558-1.934-7.446-3.57-11.231-3.736
			c-6.476-0.285-6.936,3.965-5.795,8.73C115.801,137.683,117.893,137.474,119.816,137.303z"/>
		<path fill="#D1864A" d="M130.978,133.062c-4.158-0.877-7.112-1.205-10.067-0.877c-2.954,0.328-6.236,0.463-6.675,4.116
			s-1.52,3.891,3.399,4.647c4.917,0.756,18.27-0.451,18.27-0.451"/>
		<path fill="#D1864A" d="M81.19,76.052c-2.437,0.305-4.048,2.517-6.894,3.611c-2.844,1.094-5.033,2.845-6.237,4.924
			c-1.203,2.079-4.814,7.331-5.581,8.863c-0.767,1.532-1.532,4.486,0,6.894c1.531,2.408,3.721,2.626,5.581,3.939
			c1.86,1.312,4.268-0.438,6.565,0.984c2.298,1.423,6.675,1.97,11.271,0c4.597-1.969,8.425-8.863,8.425-11.051
			c0-2.188,0.56-6.237-1.526-8.207c-2.084-1.969-4.491-1.969-6.023-4.267S84.691,75.615,81.19,76.052z"/>
		<path fill="#9E6638" d="M62.61,94.817c0.525,0.603,0.962,1.368,1.4,1.149c0.438-0.219,0.711-0.235,1.314-0.555
			c0.602-0.32,1.313-0.976,1.313-0.976s-0.111,1.204-0.93,2.079c-0.822,0.875-1.314,1.204-1.943,0.711
			C63.136,96.733,62.61,94.817,62.61,94.817z"/>
		<path fill="none" stroke="#9E6638" stroke-linecap="round" stroke-miterlimit="10" d="M64.338,97.608l0.538,2.298
			c0,0-0.538,0.767-0.866,0.875"/>
		<path fill="none" stroke="#9E6638" stroke-linecap="round" stroke-miterlimit="10" d="M64.876,99.906
			c0.338,0.602,2.362,1.86,3.402,2.243"/>
		<path fill="none" stroke="#E9C6A9" stroke-linecap="round" stroke-miterlimit="10" d="M71.726,97.608
			c0.164,0,6.266,7.386,6.266,7.386"/>
		
			<line fill="none" stroke="#E9C6A9" stroke-linecap="round" stroke-miterlimit="10" x1="70.029" y1="97.991" x2="74.953" y2="104.502"/>
		
			<line fill="none" stroke="#E9C6A9" stroke-linecap="round" stroke-miterlimit="10" x1="70.029" y1="100.289" x2="74.078" y2="108.659"/>
		<path fill="#010101" d="M76.43,89.565c0.274-0.602,0.208-1.938,0.548-2.854c0.598-1.618,2.513-2.517,3.938-1.03
			c1.259,1.313,0.219,2.845-0.71,3.283c-0.93,0.438-2.298,0.328-2.9,0.602C76.704,89.838,76.43,89.565,76.43,89.565z"/>
		<circle fill="#FFFFFF" cx="78.726" cy="86.679" r="0.735"/>
	</g>
	<path opacity="0.2" fill="#010101" d="M82.505,76.158c0.299,0.106,0.578,0.23,0.835,0.373c1.113-4.189,4.097-12.53,6.384-15.855
		c-0.038-3.395-0.425-6.636-2.952-6.717c-0.003,0.011-0.004,0.021-0.007,0.032c0.27,3.44-1.187,6.844-2.521,10.008
		c-1.265,3.001-2.767,5.798-4.435,8.515c-0.08,1.296-0.192,2.329-0.37,2.773c-0.11,0.275-0.366,1.051-0.476,1.393
		C80.095,76.336,81.442,75.782,82.505,76.158z"/>
	<path opacity="0.2" fill="#010101" d="M87.755,104.725c0.14-0.137,0.297-0.266,0.483-0.383c1.219-0.768,2.21-1.786,3.25-2.762
		c2.33-3.052,2.937-11.293,2.869-11.318c-0.001,0-0.003-0.001-0.005-0.002c-0.101-1.609-0.464-3.216-1.559-4.25
		c-0.109-0.103-0.221-0.181-0.332-0.273c1.716-2.334,5.098-8.877,6.783-13.732c1.86-5.362,2.516-11.818,2.407-14.006
		c-0.109-2.188-0.004-2.783-0.985-4.051c-0.598-0.771-1.204-1.225-1.835-1.414C98.807,53.695,98.9,54.111,99,56.438
		s-0.529,3.921-1.36,6.047c-1.584,7.332-4.609,14.254-8.315,20.944c-0.189,0.341-0.436,0.586-0.706,0.777
		c2.574,8.331-0.083,19.628-10.358,20.269c-3.037,0.189-8.614-0.105-12.995-1.689c0.935,0.488,1.902,0.868,2.793,1.498
		c0.94,0.664,2.02,0.545,3.155,0.448c-0.006,0.114-0.01,0.229-0.012,0.349c0.257-0.039,0.522-0.041,0.796,0.01
		c3.185,0.592,7.41,1.35,9.987,0.88S85.865,105.5,87.755,104.725z"/>
	<path opacity="0.2" fill="#010101" d="M93.967,125.67c-0.099,0.027-0.193,0.057-0.302,0.074c-0.349,0.055-0.703,0.1-1.057,0.144
		c-0.472,0.159-0.828,0.671-0.883,1.2c1.578,1.52,2.811,3.424,1.999,5.561c-2.132,5.61-10.741,8.055-16.224,7.686
		c-0.048-0.004-0.09-0.016-0.137-0.021c0.211,0.081,0.444,0.154,0.716,0.213c0.041,0.151,0.091,0.297,0.156,0.428
		c0.657,1.327,7.004,0.644,12.256,0c5.251-0.643,3.72-0.67,6.126-2.968c2.408-2.298,4.268-6.237,5.69-6.675
		c0.069-0.021,0.154-0.025,0.25-0.02C100.618,128.809,97.446,127.064,93.967,125.67z"/>
	<path opacity="0.2" fill="#010101" d="M154.175,127.59c-0.984-2.188-2.736,0.766-2.406-1.75c0.327-2.517-1.095-8.208-3.283-15.43
		c-1.546-5.102-5.013-8.73-10.035-12.466c5.925,11.989,4.436,27.838-5.829,36.812c0.44,1.461-0.317,3.299-2.287,3.244
		c-3.703-0.102-7.383,0.76-11.07,1.038c-1.963,0.148-5.02,0.362-5.908-1.853c-0.768,0.358-1.732,0.367-2.451-0.027
		c-0.54-0.296-0.993-0.6-1.42-0.918c0.042,0.524,0.056,1.055,0.016,1.594c-0.048,0.637-0.29,1.143-0.638,1.527
		c0.571,0.613,1.779,1.057,4.06,0.922c0.437-0.025,0.844-0.133,1.223-0.292c0.271,0.25,0.746,0.434,1.522,0.606
		c0.347,0.191,0.843,0.314,1.632,0.344c0.096,0.004,0.211,0.006,0.342,0.008c4.912,0.754,18.215-0.447,18.262-0.451
		c4.569-0.172,8.523-0.363,9.848-0.52c3.502-0.413,3.829-1.118,6.236-3.677S155.158,129.779,154.175,127.59z"/>
</g>
</svg>
