<?xml version="1.0" encoding="utf-8"?>
<!-- Generator: Adobe Illustrator 16.0.0, SVG Export Plug-In . SVG Version: 6.00 Build 0)  -->
<!DOCTYPE svg PUBLIC "-//W3C//DTD SVG 1.1//EN" "http://www.w3.org/Graphics/SVG/1.1/DTD/svg11.dtd">
<svg version="1.1" id="Layer_1" xmlns="http://www.w3.org/2000/svg" xmlns:xlink="http://www.w3.org/1999/xlink" x="0px" y="0px"
	 width="200px" height="200px" viewBox="0 0 200 200" enable-background="new 0 0 200 200" xml:space="preserve">
<g>
	<g>
		<path fill="#F3F3F3" d="M160.017,69.532c2.558,2.813,3.326,4.221,3.965,8.825c0.639,4.604,1.407,16.407,1.407,18.435
			c0,2.027,0.768,8.294,1.533,10.596c0.769,2.302,2.174,5.698,3.453,7.069c1.278,1.37,3.583,2.905,5.627,4.568
			c2.047,1.664,2.047,3.454,3.581,4.989c1.536,1.533,2.175,1.769,2.942,1.396c0.767-0.373-2.686-1.524-2.813-3.698
			c-0.129-2.175,2.013-0.257,2.925,1.15c0.911,1.408,1.678,1.408,1.168,0.13c-0.513-1.28-1.078-2.559,0.163-1.409
			c1.242,1.151,3.801,0.257,1.115-1.023c-2.686-1.278-4.731-1.278-5.629-2.686c-0.895-1.405-0.895-2.686-2.684-4.219
			c-1.79-1.536-3.069-4.348-4.604-6.268c-1.534-1.92-3.07-3.068-4.093-5.883c-1.022-2.813-1.406-6.778-1.279-10.743
			c0.128-3.965-0.384-12.917-1.535-16.754c-1.149-3.837-1.533-7.545-4.475-8.441C157.843,64.673,160.017,69.532,160.017,69.532z"/>
		<path fill="#CDCCCC" d="M69.598,106.109c1.022,5.884,1.789,13.557,1.917,15.859c0.129,2.303,1.535,4.475,1.918,6.776
			c0.384,2.303-1.151,12.278-1.918,14.453c-0.768,2.174-4.349,4.732-5.243,6.395c-0.896,1.662,0.827,1.918,3.612,2.175
			c2.782,0.255,5.724,0.128,6.491-1.919c0.767-2.046,2.941-15.891,2.941-20.863c0-4.97,1.407-18.911,0-22.237
			C77.91,103.424,69.598,106.109,69.598,106.109z"/>
		<path fill="#CDCCCC" d="M135.973,106.365c1.951,2.507,4.988,7.545,6.14,12.405c1.149,4.859,1.79,10.871,1.278,13.429
			c-0.511,2.557-0.383,7.289-2.045,8.696c-1.663,1.407-4.478,3.325-3.328,4.093c1.152,0.768,6.907,1.535,8.186-0.896
			c1.279-2.43,0.896-4.859,1.536-4.988c0.637-0.127,2.173,0.896,2.046-0.639c-0.129-1.535-0.896-1.918-0.896-3.836
			c0-1.92,0.398-20.336,0.902-22.254c0.504-1.919,0.634-1.278-1.926-4.987C145.309,103.679,135.151,105.312,135.973,106.365z"/>
		<path fill="#F7A7B5" d="M124.591,96.645c0.127,2.815,1.917,11.51,4.347,12.534c2.432,1.023,3.069,1.278,3.326,2.686
			s0.64,1.792,1.279,1.662c0.639-0.127,0-2.812,0.767-3.197c0.769-0.384,1.918-0.512,2.175,0.385s0.384,3.836,1.407,3.708
			c1.022-0.128,1.532-2.595,1.278-3.059c-0.252-0.464,0-0.906,0.895-0.906c0.896,0,1.663,0,1.408,1.153
			c-0.258,1.148-1.18,3.204,0.048,2.817c1.23-0.39,0.975-3.331,1.998-3.074c1.022,0.257,3.964-0.385,5.115-1.534
			c1.151-1.151,2.941-1.484,2.941-4.26c0-2.774-2.941-14.669-7.929-15.82C138.657,88.589,124.591,96.645,124.591,96.645z"/>
		<path fill="#010101" d="M161.934,65.44c-0.388-1.362-2.555-3.979-5.201-5.606c-0.468,0.93-1.439,1.537-2.73,1.076
			c-1.846-0.659-3.903-0.58-5.812-0.984c-2.769-0.587-5.224-2.01-7.934-2.813c-5.176-1.534-10.282-1.953-15.589-2.613
			c-0.593-0.074-1.075-0.31-1.447-0.643c-0.938-0.041-1.854-0.099-2.722-0.183c-4.096-0.394-14.736-1.079-22.848-1.606
			c-0.099,0.999-0.825,1.816-1.819,2.176c-1.32,0.479-3.031,0.737-4.402,0.336c-1.124-0.329-2.099-1.104-2.429-2.267
			c-0.08-0.282-0.115-0.561-0.119-0.836c-0.595-0.045-1.027-0.081-1.25-0.105c-1.579-0.175-4.599-1.311-7.619-1.597
			c-0.22,1.002-0.996,1.867-2.345,1.892c-0.723,0.013-1.442,0.069-2.16,0.14c-1.156,0.149-2.292,0.354-3.446,0.382
			c-0.74,0.074-1.481,0.133-2.227,0.146c-0.481,0.008-0.885-0.102-1.223-0.286c-1.324,0.216-2.585,0.313-3.744,0.22
			c-3.199-0.256-6.524-2.688-5.884-2.559c0.639,0.128,6.045,1.396,7.051-0.005c1.006-1.401,4.074-6.389,3.564-7.795
			c-0.513-1.407-2.432-2.431-4.861-1.79c-2.429,0.638-5.753,3.581-7.034,3.836c-1.279,0.256-3.965-0.639-5.117-1.918
			c-0.312-0.348-0.655-0.848-1.034-1.39c-0.52,0.392-1.216,0.551-2.05,0.264c-2.448-0.841-4.253-0.869-6.361,0.947
			c-1.631,1.405-3.134,2.939-5.046,3.968c-1.208,0.65-2.354,0.238-3.059-0.563c-0.951,0.749-1.699,1.463-2.015,2.018
			c-1.023,1.79,0.768,4.731,0,5.371c-0.021,0.017-0.051,0.057-0.076,0.083c1.043,0.64,1.625,1.897,0.714,3.194
			c-1.61,2.291-3.379,3.857-5.776,5.293c-5.784,3.464-3.574,8.319,2.784,8.008c3.958-0.194,7.146,0.669,10.965,1.493
			c2.627,0.567,5.242,0.527,7.556,2.004c2.603,1.661,3.174,5.143,4.472,7.679c1.64,3.206,4.021,5.986,5.582,9.218
			c1.649,3.413,3.133,6.86,4.942,10.195c1.485,2.736,5.225,12.059,8.889,9.356c1.72-1.269,3.382,0.206,3.573,1.896
			c0.644-0.455,1.034-0.583,1.265,0.283c0.486,1.822-1.22,10.332-1.391,12.931c0.136,0.062,0.271,0.13,0.409,0.224
			c1.897,1.297,2.948,3.338,3.429,5.729c0.677-0.913,1.854-1.05,2.827-0.636c0.651-2.049,1.25-4.631,1.632-6.354
			c0.231-1.044,0.885-4.322,1.696-7.666c-0.906-0.921-1.194-2.251-0.931-3.561c0.286-1.423,1.205-2.492,2.323-3.346
			c0.247-0.188,0.527-0.291,0.818-0.339c0.331-0.718,0.653-1.202,0.954-1.331c0.397-0.17,1.018-0.196,1.776-0.128
			c0.205-0.254,0.473-0.455,0.801-0.581c2.254-3.649,7.239-3.717,11.148-3.099c6.463,1.02,12.213,2.675,18.511,2.457
			c0.084-0.022,0.173-0.043,0.256-0.064c7.183-1.932,12.327-4.651,14.754-11.921c0.654-1.96,2.174-3.12,3.869-3.263
			c0.039-0.021,0.072-0.045,0.114-0.065c3.229-1.538,6.598-2.568,10.047-3.251c2.483-0.919,5.112-1.389,7.621-1.302
			c0.525-5.092,1.373-10.331,1.954-11.908C161.424,71.451,162.446,67.231,161.934,65.44z"/>
		<path fill="#F3F3F3" d="M160.4,125.411c0.127-2.037-0.128-5.233,0.51-7.664c0.64-2.43,1.536-4.604,0.258-6.266
			c-1.279-1.662-3.07-12.279-3.07-18.161c0-2.914,0.378-7.114,0.866-10.907c-0.562-0.68-1.079-2.361-1.219-2.905
			c-0.318-1.255-0.006-2.434,0.229-3.673c0.232-1.234,0.136-2.313,0.125-3.588c-0.019-2.643,0.257-4.745-1.027-7.222
			c-0.582-1.119-1.422-2.214-1.149-3.549c0.179-0.862,0.657-1.2,1.286-1.332c-0.97-0.653-2.016-1.189-3.076-1.482
			c-3.708-1.023-12.276-4.86-14.963-4.988c-2.486-0.118-10.673,0.53-17.151,0.119c0.047,0.038,0.093,0.069,0.142,0.108
			c2.271,1.859,4.113,1.094,6.775,1.653c1.354,0.285,3.361,0.895,3.936,2.084c0.584,1.209,0.262,1.87-0.099,2.935
			c-0.23,0.677-0.316,1.392-0.601,2.056c-0.261,0.608-0.888,1.085-1.09,1.661c-0.504,1.432,0.341,1.644,1.21,2.551
			c0.892,0.932,1.054,2.406,1.507,3.588c0.522,1.356,0.695,2.417,2.078,2.078c1.198-0.295,2.026-0.97,3.136,0.349
			c0.897,1.066,0.749,2.841,0.67,4.191c-0.085,1.392-0.631,2.604-0.519,4.028c0.134,1.722,1.062,3.445,0.549,5.214
			c-0.87,3-3.255-0.821-5.255,0.159c0.439,0.744,0.952,1.627,0.747,2.555c-0.389,1.752-1.262,0.35-2.558,0.474
			c-1.157,0.111-1.719,0.846-2.91,0.491c-1.072-0.32-2.336-1.715-2.845-0.099c-0.326,1.04,0.148,2.522-0.225,3.701
			c-0.739,2.348-2.923,4.233-5.021,5.415c-1.354,0.762-1.559,0.234-2.811-0.423c-1.354-0.709-2.854-0.875-4.228-1.628
			c-1.519-0.83-2.548-1.787-3.317-3.343c-0.555-1.129-1.951-4.922-3.295-4.713c-0.37,0.057-0.879,1.118-1.339,1.218
			c-0.789,0.171-0.546-0.057-1.147-0.483c-1.302-0.921-2.054-2.088-2.406-3.609c-0.735-3.188-1.452-5.756-3.583-8.313
			c-1.834-2.203-6.23-4.261-6.391-7.356c-0.084-1.597,0.646-2.853,0.384-4.483c-0.284-1.759-1.184-3.163-1.792-4.796
			c-1.118-3.003,1.269-3.781,3.706-2.494c2.769,1.463,3.798,4.666,5.854,6.783c0.869,0.894,1.368,1.727,1.695,2.911
			c0.283,1.029,0.417,2.417,1.176,3.296c0.875,1.012,2.771,1.845,3.947,0.896c1.255-1.016,0.237-2.754-0.545-3.809
			c-1.015-1.368-2.927-1.469-3.973-2.519c-0.773-0.775-0.387-2.148-0.705-3.108c-0.692-2.094-2.869-3.256-3.385-5.368
			c-0.253-1.039-0.219-2.093-0.604-3.095c-0.232-0.598-0.916-1.611-1.101-2.47c-4.213-0.275-7.759-0.506-9.384-0.637
			c0.003,0.264-0.038,0.541-0.126,0.833c-0.665,2.158-2.396,1.59-3.972,0.602c-1.13-0.708-3.783-1.583-4.171-3.085
			c-1.426-0.146-2.858-0.11-4.142,0.303c-2.438,0.786-4.874,1.522-7.132,1.916c0.498,0.218,0.979,0.479,1.506,0.646
			c1.671,0.532,3.542,0.432,5.237,0.985c4.631,1.509,5.715,6.323,7.548,10.038c0.584,1.183,1.538,1.892,2.014,3.141
			c0.475,1.244,0.225,2.097,0.291,3.357c0.134,2.582,2.478,3.985,3.357,6.26c0.47,1.215,0.412,2.492,0.638,3.741
			c0.316,1.759,0.849,3.473,1.121,5.239c0.156,1.013,0.472,4.053-1.311,3.331c-1.083-0.439-1.172-2.336-2.149-2.991
			c-1.555,2.086,0.386,5.392,0.39,7.728c0.005,1.587-0.345,3.143-1.915,3.904c-1.225,0.594-2.139,0.026-3.043,1.179
			c-0.6,0.765-0.611,2.019-1.819,2.268c-1.228,0.251-1.496-1.01-1.95-2.008c-0.808-1.776-1.393-3.541-2.044-5.378
			c-0.449-1.269-1.148-3.413-2.784-3.591c-1.19-0.131-1.993,1.482-3.204,0.524c-0.993-0.787-0.624-2.198-2.388-2.468
			c-2.495-0.383-2.727,4.238-5.662,4.134c-3.046-0.109-3.262-3.857-3.835-6.018c-0.4-1.512-2.155-2.48-2.85-3.83
			c-0.579-1.12-0.254-2.176-0.066-3.332c0.399-2.443-1.276-4.391-1.05-6.996c0.297-3.462,1.429-7.588,0.482-10.999
			c-0.589,1.004-0.329,2.837-1.6,2.366c-1.151-0.427-1.248-2.265-2.72-1.899c-1.027,0.255-2.489,1.607-3.452,2.047
			c-1.012,0.46-2.215,0.783-3.168,1.412c-1.006,0.665-1.358,2.006-2.588,1.056c-0.795-0.614-1.119-2.186-1.532-3.069
			c-0.558-1.198-0.909-2.199-2.178-2.689c-1.057-0.409-1.763-0.048-2.046-1.181c-0.574-2.297,2.309-3.7,2.944-5.499
			c0.779-2.199,1.366-3.992,2.712-6.011c1.087-1.63,2.587-4.114,4.445-4.86c1.313-0.527,2.532-0.107,3.768-0.97
			c0.516-0.361,0.958-0.775,1.438-1.152c-0.994-1.404-2.243-2.993-3.926-2.993c-2.43,0-3.068,2.813-5.499,3.709
			c-1.673,0.616-4.801,2.445-6.923,4.11c0.528,1.078-0.512,3.022-0.75,3.952c-0.125,0.482-0.278,2.808-1.163,3.297
			c-0.03,0.059-0.067,0.109-0.116,0.15c-0.769,0.64-4.35,7.802-6.651,8.313c-2.302,0.511-3.966,1.534-3.455,3.325
			c0.513,1.79-1.208,3.581-0.093,4.859c1.117,1.28,1.629,0.769,3.036,1.791c1.406,1.023,3.708,1.791,6.01,1.151
			c2.303-0.64,3.709-0.383,6.139,0.767c2.43,1.151,9.463,0.512,9.463,0.512c1.663,2.43,5.756,7.93,8.186,11.511
			c2.43,3.581,3.327,5.755,4.349,8.44c1.022,2.687,3.326,6.778,4.731,10.104c1.409,3.324,5.12,10.231,8.251,9.591
			c3.13-0.639,4.409-3.58,4.922-1.661c0.046,0.173,0.073,0.41,0.082,0.694l0.046-0.055c0.335-1.356,1.079-1.873,1.89-0.512
			c0.623,1.046,0.126,2.116,0.405,3.202c0.265,1.036,0.725,1.611,0.773,2.801c0.043,1.061-0.146,2.338-0.729,3.211
			c-0.649,0.975-2.525,3.552-3.715,2.247c-0.097,0.746-0.159,1.346-0.159,1.712c0,2.045,1.581,5.371,1.495,7.033
			c-0.087,1.662-2.006,14.196-3.028,15.731c-1.024,1.534-4.35,5.884-4.604,7.289c-0.257,1.408,4.604,1.535,7.032,1.408
			c2.43-0.13,4.478-3.327,4.093-5.117c-0.384-1.79-1.057-2.558,0.048-2.558c1.104,0,2.256,0.512,2-0.895
			c-0.256-1.407-1.152-2.175-1.279-4.478c-0.127-2.301-0.64-9.592,0.256-11.637c0.287-0.66,0.576-1.51,0.854-2.431
			c-1.634,0.254-1.362-3.515-1.237-4.73c0.094-0.922-0.09-2.236,0.222-3.101c0.258-0.708,0.952-0.9,1.372-1.45
			c0.541-0.703,0.471-1.222,0.695-2.04c0.284-1.03,0.557-1.935,1.598-1.178c0.082,0.059,0.157,0.124,0.229,0.19
			c1.018-4.349,2.359-9.229,3.43-9.688c1.791-0.767,7.93,1.278,12.276,2.557c4.348,1.28,19.086,1.266,22.638,0.129
			c3.55-1.137,7.417-6.778,9.848-8.953c2.43-2.173,5.241-7.929,8.566-5.115c3.326,2.812,6.613,8.441,7.081,11.125
			c0.466,2.687,2.513,9.337,3.791,12.661c1.279,3.326,2.046,4.33,2.43,6.002c0.385,1.673,0.129,10.496-0.511,14.077
			s-4.987,7.546-4.221,8.826c0.769,1.278,5.116,1.662,7.673,0.639c2.56-1.023,0.896-2.174,1.152-3.836
			c0.255-1.664-0.257-3.965,0.894-3.07c1.152,0.896,1.919,0.256,1.022-1.151C161.424,139.488,160.271,127.449,160.4,125.411z"/>
		<path fill="#010101" d="M29.183,64.289c-1.023,0.511-1.15-0.256-1.918,0.511c-0.768,0.767-0.639,1.663,0.96,1.536
			C29.822,66.208,29.183,64.289,29.183,64.289z"/>
		<path fill="none" stroke="#010101" stroke-linecap="round" stroke-miterlimit="10" d="M25.858,70.044
			c1.327,0.502,5.395,0.249,7.047-0.469"/>
		<path fill="#FFFFFF" d="M47.312,49.486c-0.638-0.392-1.581-0.815-2.254-0.384c-0.671,0.432-0.863,1.87,0.624,1.966
			C47.169,51.164,47.909,49.854,47.312,49.486z"/>
		<circle fill="#FFFFFF" stroke="#010101" stroke-width="1.1099" stroke-miterlimit="10" cx="45.505" cy="49.549" r="0.447"/>
		<path fill="#010101" d="M88.394,97.794c-0.288,1.029-0.073,2.65-0.125,3.71c-0.06,1.252-0.05,2.41-0.284,3.583
			c-0.231,1.158-0.72,2.478,0.412,3.337c0.763-0.601,2.128-2.582,2.559-3.466c0.649-1.336-0.237-2.923,0.924-4.094
			c0.901-0.905,1.816-0.708,2.051-2.2c0.163-1.045-0.175-2.01-0.886-2.762c-0.3-0.316-1.304-1.242-1.83-0.957
			c-0.682,0.37-0.081,1.714-0.054,2.312C90.107,97.215,88.804,96.323,88.394,97.794z"/>
		<path fill="#010101" d="M128.012,97.314c-0.371,1.146-1.096,2.361-0.516,3.553c1.18,2.419,4.708-0.381,5.631-1.819
			c1.073-1.676,0.535-6.12-1.276-7.318C128.979,89.83,128.473,95.884,128.012,97.314z"/>
		<path fill="#010101" d="M151.064,76.574c0.84,0.729,2.134,2.277,3.325,2.194c1.189-0.082,1.767-1.373,2.172-2.465
			c0.794-2.131,0.546-4.825,0.13-7.026c-0.424-2.236-6.179-6.866-8.387-4.71c-1.114,1.09-0.25,4.371-0.101,5.77
			C148.451,72.665,149.247,75.002,151.064,76.574z"/>
	</g>
	<path opacity="0.2" fill="#010101" d="M69.598,41.909c-0.513-1.407-2.432-2.431-4.861-1.79c-2.429,0.638-5.753,3.581-7.034,3.836
		c-0.938,0.188-2.627-0.247-3.919-0.994c-1.562,2-3.754,3.156-5.771,4.946c-2.771,2.458-3.243,6.312-5.746,9.028
		c-0.657,0.713-1.637,0.852-2.493,0.589c-0.522,0.463-1.109,0.865-1.748,1.219c-0.337,1.15-0.639,2.318-0.902,3.521
		c-0.394,1.795-1.161,4.003-2.401,5.34c-0.203,0.437-0.516,0.819-0.961,1.056c-1.721,0.917-4.243,0.987-6.568,0.454
		c-0.225-0.027-0.448-0.065-0.67-0.111c-0.872,0.086-1.765-0.066-2.569-0.537c-0.575-0.336-1.02-0.854-1.339-1.454
		c-0.209,0.792-0.328,1.524,0.207,2.138c1.117,1.28,1.629,0.769,3.036,1.791c1.406,1.023,3.708,1.791,6.01,1.151
		c2.303-0.64,3.709-0.383,6.139,0.767c1.881,0.891,6.508,0.709,8.508,0.582c0.273-0.357,0.646-0.659,1.153-0.85
		c4.823-1.819,8.167-3.056,10.02-8.329c1.018-2.895,1.425-6.198,2.986-8.855c0.348-0.593,0.822-0.933,1.331-1.092
		C62.003,54.206,62.004,54.109,62,54c-0.035-1.006,0.427-1.696,1.083-2.074c-2.521-0.735-4.621-2.322-4.101-2.217
		c0.639,0.128,6.045,1.396,7.051-0.005C67.04,48.303,70.108,43.315,69.598,41.909z"/>
	<path opacity="0.2" fill="#010101" d="M185.083,120.561c-2.686-1.278-4.731-1.278-5.629-2.686
		c-0.895-1.405-0.895-2.686-2.684-4.219c-1.79-1.536-3.069-4.348-4.604-6.268c-1.534-1.92-3.07-3.068-4.093-5.883
		c-1.022-2.813-1.406-6.778-1.279-10.743c0.128-3.965-0.384-12.917-1.535-16.754c-0.957-3.194-1.389-6.292-3.201-7.76
		c-0.019-0.304-0.058-0.577-0.124-0.808c-0.398-1.4-2.678-4.125-5.426-5.737c-0.024-0.015-0.048-0.029-0.072-0.043
		c-0.209-0.121-0.42-0.233-0.633-0.34c-0.049-0.024-0.097-0.049-0.146-0.073c-0.195-0.094-0.393-0.179-0.591-0.259
		c-0.06-0.024-0.118-0.051-0.178-0.074c-0.251-0.095-0.503-0.181-0.756-0.251c-3.241-0.894-10.195-3.938-13.689-4.776
		c2.981,3.571,4.644,8.368,5.55,13.253c0.801,4.316,0.854,9.17,2.357,13.312c1.16,3.197,2.78,6.223,3.561,9.551
		c0.733,3.135,1.04,6.299,2.167,9.333c0.309,0.832,0.159,1.526-0.23,2.043c0.625,2.525,1.11,5.085,1.474,7.674
		c2.044,7.415,3.005,15.431,3.254,22.95c0.202,6.117-0.323,12.274-3.266,17.528c1.355,0.048,2.818-0.13,3.938-0.578
		c2.56-1.023,0.896-2.174,1.152-3.836c0.255-1.664-0.257-3.965,0.894-3.07c1.152,0.896,1.919,0.256,1.022-1.151
		c-0.893-1.407-2.045-13.446-1.916-15.484c0.127-2.037-0.128-5.233,0.51-7.664c0.64-2.43,1.536-4.604,0.258-6.266
		c-1.279-1.662-3.07-12.279-3.07-18.161c0-0.365,0.006-0.75,0.018-1.152c0.079-2.808,0.422-6.437,0.849-9.755v0
		c0.497-3.864,1.111-7.306,1.563-8.532c0.288-0.781,0.589-1.747,0.848-2.757c1.506,1.932,2.099,3.573,2.606,7.233
		c0.639,4.604,1.407,16.407,1.407,18.435c0,2.027,0.768,8.294,1.533,10.596c0.769,2.302,2.174,5.698,3.453,7.069
		c1.278,1.37,3.583,2.905,5.627,4.568c2.047,1.664,2.047,3.454,3.581,4.989c1.536,1.533,2.175,1.769,2.942,1.396
		c0.767-0.373-2.686-1.524-2.813-3.698c-0.129-2.175,2.013-0.257,2.925,1.15c0.911,1.408,1.678,1.408,1.168,0.13
		c-0.513-1.28-1.078-2.559,0.163-1.409C185.21,122.735,187.769,121.841,185.083,120.561z"/>
	<path opacity="0.2" fill="#010101" d="M150.439,108.387c-0.146-0.498-0.163-0.77-0.285-1.273c-0.337-1.396-0.733-2.971-2.417-5.684
		c-1.375-2.04-2.317-3.294-4.335-5.794c-1.466-2.102-2.862-4.197-3.48-6.804c-0.053-0.222-0.07-0.432-0.074-0.635
		c-0.136-0.39-0.246-0.79-0.365-1.187c-4.186,7.291-11.419,13.074-19.352,15.377c-3.822,1.109-7.785,1.426-11.589,0.644
		c-0.545,0.519-1.298,0.837-2.206,0.714c-4.506-0.613-9.097-1.529-12.339-4.978c-1.588-1.688-2.399-3.993-2.567-6.269
		c-0.06-0.811-0.023-1.757-0.014-2.716c-0.062-0.059-0.12-0.124-0.184-0.18c-0.006-0.005-0.008-0.011-0.014-0.016
		c-0.266,1.73-0.636,3.462-1.1,5.145c-1.165,4.231-2.685,8.265-4.627,12.199c-0.039,0.078-0.087,0.14-0.13,0.21
		c-0.638,1.958-1.389,3.851-2.203,5.623c-1.124,2.444-4.512,0.989-4.659-1.262c-0.156-2.387-0.178-4.768-0.116-7.148
		c-4.618-0.04-8.832-3.1-12.057-6.406c-2.857-2.929-5.609-5.979-8.275-9.104c0.815,1.563,1.368,2.94,1.954,4.478
		c1.022,2.687,3.326,6.778,4.731,10.104c1.046,2.469,3.362,6.906,5.767,8.769c0.014,0.108,0.027,0.214,0.041,0.321
		c6.107,2.174,4.476,11.312,4.441,16.537c-0.059,8.708-1.276,16.331-7.342,22.436c0.613,0.121,1.376,0.201,2.241,0.281
		c0.667,0.062,1.341,0.098,1.994,0.094c-0.775,1.181-1.407,2.266-1.513,2.847c-0.257,1.408,4.604,1.535,7.032,1.408
		c2.43-0.13,4.478-3.327,4.093-5.117c-0.384-1.79-1.057-2.558,0.048-2.558c1.104,0,2.256,0.512,2-0.895
		c-0.256-1.407-1.152-2.175-1.279-4.478c-0.127-2.301-0.64-9.592,0.256-11.637c0.094-0.217,0.188-0.459,0.282-0.713
		c0.036-0.096,0.071-0.192,0.107-0.292c0.082-0.231,0.163-0.471,0.244-0.721c0.032-0.099,0.063-0.2,0.095-0.302
		c0.042-0.134,0.084-0.266,0.125-0.403h-0.004c0.58-1.936,1.104-4.194,1.452-5.755c0.206-0.929,0.745-3.625,1.433-6.562
		c0.123-0.525,0.251-1.058,0.382-1.589c0.012-0.049,0.024-0.097,0.036-0.145c0.052-0.209,0.104-0.418,0.157-0.625
		c0.018-0.068,0.035-0.137,0.052-0.205c0.049-0.191,0.099-0.383,0.149-0.573c0.019-0.071,0.038-0.143,0.056-0.214
		c0.051-0.189,0.102-0.377,0.153-0.564c0.018-0.064,0.035-0.131,0.053-0.195c0.067-0.242,0.135-0.481,0.203-0.717
		c0.014-0.049,0.029-0.097,0.043-0.146c0.053-0.182,0.106-0.361,0.16-0.537c0.027-0.088,0.054-0.174,0.081-0.26
		c0.041-0.133,0.082-0.262,0.124-0.39c0.03-0.095,0.061-0.188,0.092-0.279c0.039-0.116,0.077-0.229,0.116-0.341
		c0.031-0.091,0.062-0.182,0.094-0.27c0.04-0.11,0.08-0.217,0.119-0.322c0.029-0.078,0.059-0.158,0.088-0.233
		c0.058-0.148,0.116-0.29,0.174-0.427c0.027-0.064,0.055-0.125,0.082-0.186c0.048-0.109,0.097-0.217,0.146-0.316
		c0.027-0.056,0.054-0.105,0.081-0.158c0.024-0.047,0.049-0.092,0.073-0.135c0.21-0.24,0.43-0.516,0.65-0.811
		c0.021-0.012,0.042-0.033,0.062-0.042c1.791-0.767,7.93,1.278,12.276,2.557c4.348,1.28,19.086,1.266,22.638,0.129
		c0.997-0.319,2.019-1.001,3.027-1.854c0.412,0.664,0.854,1.146,1.319,1.343c0.438,0.185,0.799,0.339,1.128,0.483
		c0.127-0.205,0.283-0.407,0.5-0.596c2.975-2.588,6.092-6.67,10.501-6.272c3.523,0.317,4.576,3.849,6.426,6.278
		c1.396,1.833-1.443,2.104-3.815,2.279c1.123,7.305,2.531,14.357,1.865,21.796c-0.488,5.438-2.196,8.896-5.282,12.474
		c2.153,0.296,5.076,0.12,5.943-1.528c1.279-2.43,0.896-4.859,1.536-4.988c0.637-0.127,2.173,0.896,2.046-0.639
		c-0.129-1.535-0.896-1.918-0.896-3.836c0-1.92,0.398-20.336,0.902-22.254c0.389-1.481,0.55-1.444-0.572-3.054
		C149.478,109.127,150.181,108.585,150.439,108.387z"/>
</g>
</svg>
