<?xml version="1.0" encoding="utf-8"?>
<!-- Generator: Adobe Illustrator 16.0.0, SVG Export Plug-In . SVG Version: 6.00 Build 0)  -->
<!DOCTYPE svg PUBLIC "-//W3C//DTD SVG 1.1//EN" "http://www.w3.org/Graphics/SVG/1.1/DTD/svg11.dtd">
<svg version="1.1" id="Layer_1" xmlns="http://www.w3.org/2000/svg" xmlns:xlink="http://www.w3.org/1999/xlink" x="0px" y="0px"
	 width="200px" height="200px" viewBox="0 0 200 200" enable-background="new 0 0 200 200" xml:space="preserve">
<g>
	<rect x="54.249" y="85.127" width="45.633" height="20.189"/>
	<path fill="#353535" d="M52.037,90.934v29.848H97.34c0,0-5.534-23.577-21.713-28.337C59.448,87.684,52.037,90.934,52.037,90.934z"
		/>
	<g>
		<circle fill="#8C8C8C" cx="63.74" cy="121.878" r="24.549"/>
		<g>
			<g>
				<path fill="#8C8C8C" d="M85.672,129.407c0.132,0.04,1.053-3.894,0.963-3.91l2.652,0.415c0.102,0.019-0.933,4.411-1.077,4.367
					L85.672,129.407z"/>
			</g>
			<g>
				<path fill="#8C8C8C" d="M82.036,136.119c0,0,0.151-0.202,0.377-0.507c0.218-0.309,0.556-0.688,0.797-1.135
					c0.262-0.432,0.524-0.863,0.721-1.185c0.206-0.318,0.309-0.551,0.309-0.551l2.371,1.26c0,0-0.117,0.257-0.345,0.613
					c-0.219,0.359-0.512,0.841-0.804,1.322c-0.273,0.494-0.645,0.922-0.888,1.269c-0.253,0.337-0.422,0.563-0.422,0.563
					L82.036,136.119z"/>
			</g>
			<g>
				<path fill="#8C8C8C" d="M76.425,141.298c0,0,0.054-0.033,0.148-0.09c0.098-0.052,0.225-0.146,0.375-0.261
					c0.303-0.227,0.708-0.529,1.112-0.832c0.418-0.285,0.779-0.641,1.061-0.895c0.28-0.252,0.467-0.424,0.467-0.424l1.836,1.959
					c0,0-0.209,0.189-0.521,0.473c-0.314,0.282-0.72,0.674-1.184,0.996c-0.451,0.338-0.902,0.676-1.24,0.928
					c-0.168,0.129-0.311,0.231-0.419,0.289c-0.105,0.065-0.166,0.103-0.166,0.103L76.425,141.298z"/>
			</g>
			<g>
				<path fill="#8C8C8C" d="M69.432,144.352c0,0,0.245-0.061,0.61-0.154c0.183-0.049,0.397-0.106,0.626-0.165
					c0.221-0.081,0.459-0.169,0.695-0.257c0.474-0.173,0.947-0.344,1.304-0.473c0.349-0.146,0.572-0.266,0.572-0.266l1.102,2.447
					c0,0-0.25,0.133-0.64,0.293c-0.396,0.146-0.925,0.34-1.455,0.535c-0.265,0.096-0.529,0.191-0.777,0.283
					c-0.255,0.068-0.494,0.129-0.698,0.184c-0.409,0.105-0.682,0.175-0.682,0.175L69.432,144.352z"/>
			</g>
			<g>
				<path fill="#8C8C8C" d="M61.822,144.987c0,0,1.01,0.061,2.018,0.094c1.009-0.052,2.019-0.103,2.019-0.103l0.242,2.672
					c0,0-1.124,0.059-2.249,0.115c-1.124-0.031-2.248-0.102-2.248-0.102L61.822,144.987z"/>
			</g>
			<g>
				<path fill="#8C8C8C" d="M54.421,143.123c0,0,0.057,0.029,0.156,0.077c0.097,0.054,0.247,0.104,0.425,0.171
					c0.355,0.129,0.829,0.303,1.303,0.476c0.467,0.194,0.96,0.307,1.328,0.398c0.366,0.096,0.61,0.158,0.61,0.158l-0.634,2.607
					c0,0-0.273-0.071-0.683-0.175c-0.409-0.107-0.959-0.234-1.482-0.447c-0.529-0.193-1.058-0.388-1.455-0.531
					c-0.198-0.075-0.365-0.134-0.473-0.192c-0.11-0.052-0.175-0.083-0.175-0.083L54.421,143.123z"/>
			</g>
			<g>
				<path fill="#8C8C8C" d="M48.041,138.933c0,0,0.187,0.169,0.466,0.426c0.14,0.125,0.304,0.274,0.479,0.436
					c0.189,0.14,0.392,0.292,0.595,0.442c0.403,0.303,0.808,0.605,1.111,0.832c0.313,0.211,0.534,0.334,0.534,0.334l-1.451,2.259
					c0,0-0.246-0.138-0.595-0.374c-0.338-0.252-0.79-0.59-1.241-0.926c-0.225-0.171-0.45-0.34-0.661-0.498
					c-0.196-0.176-0.379-0.342-0.535-0.484c-0.313-0.281-0.521-0.471-0.521-0.471L48.041,138.933z"/>
			</g>
			<g>
				<path fill="#8C8C8C" d="M43.325,132.924c0,0,0.524,0.863,1.048,1.727c0.264,0.43,0.595,0.814,0.813,1.125
					c0.227,0.303,0.377,0.504,0.377,0.504l-2.103,1.669c0,0-0.169-0.226-0.422-0.563c-0.244-0.344-0.61-0.775-0.905-1.253
					c-0.584-0.966-1.167-1.927-1.167-1.927L43.325,132.924z"/>
			</g>
			<g>
				<path fill="#8C8C8C" d="M40.874,125.697c-0.113,0.021,0.894,3.936,1.002,3.9l-2.531,0.895c-0.12,0.037-1.244-4.332-1.119-4.357
					L40.874,125.697z"/>
			</g>
			<g>
				<path fill="#8C8C8C" d="M40.874,118.062c0,0-0.038,0.248-0.095,0.624c-0.056,0.373-0.15,0.871-0.153,1.378
					c-0.026,0.503-0.051,1.008-0.07,1.388c-0.009,0.188-0.021,0.346-0.021,0.456c0.006,0.11,0.01,0.173,0.01,0.173l-2.685,0.023
					c0,0-0.003-0.07-0.009-0.191c0-0.125,0.013-0.299,0.021-0.512c0.021-0.421,0.049-0.982,0.078-1.545
					c0.007-0.563,0.107-1.121,0.171-1.537c0.064-0.418,0.106-0.697,0.106-0.697L40.874,118.062z"/>
			</g>
			<g>
				<path fill="#8C8C8C" d="M43.325,110.832c0,0-0.438,0.91-0.875,1.821c-0.213,0.456-0.356,0.942-0.496,1.293
					c-0.131,0.356-0.217,0.593-0.217,0.593l-2.546-0.85c0,0,0.096-0.265,0.241-0.66c0.154-0.395,0.319-0.936,0.555-1.448
					c0.489-1.014,0.979-2.028,0.979-2.028L43.325,110.832z"/>
			</g>
			<g>
				<path fill="#8C8C8C" d="M48.041,104.823c-0.074-0.074-2.81,2.902-2.719,2.978l-2.132-1.633c0,0,0.169-0.224,0.422-0.562
					c0.249-0.343,0.651-0.739,1.022-1.162c0.387-0.407,0.738-0.852,1.067-1.12c0.312-0.284,0.521-0.475,0.521-0.475L48.041,104.823z
					"/>
			</g>
			<g>
				<path fill="#8C8C8C" d="M54.421,100.633c0,0-0.907,0.441-1.814,0.883c-0.863,0.525-1.726,1.049-1.726,1.049l-1.49-2.232
					c0,0,0.963-0.586,1.925-1.17c1.005-0.508,2.025-0.986,2.025-0.986L54.421,100.633z"/>
			</g>
			<g>
				<path fill="#8C8C8C" d="M61.822,98.77c0,0-0.062,0.004-0.173,0.008c-0.11,0.009-0.269,0.004-0.456,0.041
					c-0.374,0.058-0.873,0.134-1.372,0.21c-0.25,0.037-0.499,0.075-0.733,0.111c-0.229,0.058-0.443,0.112-0.626,0.159
					c-0.366,0.094-0.61,0.156-0.61,0.156l-0.68-2.596c0,0,0.272-0.07,0.682-0.176c0.205-0.051,0.444-0.111,0.7-0.174
					c0.261-0.041,0.539-0.084,0.817-0.127c0.557-0.086,1.113-0.17,1.531-0.233c0.209-0.039,0.385-0.036,0.508-0.046
					c0.124-0.006,0.193-0.01,0.193-0.01L61.822,98.77z"/>
			</g>
			<g>
				<path fill="#8C8C8C" d="M69.432,99.406c0.021-0.09-3.961-0.783-3.978-0.647l0.196-2.677c0.016-0.148,4.461,0.621,4.438,0.721
					L69.432,99.406z"/>
			</g>
			<g>
				<path fill="#8C8C8C" d="M76.425,102.459c0,0-0.216-0.131-0.54-0.328c-0.326-0.191-0.749-0.468-1.191-0.709
					c-0.91-0.438-1.819-0.877-1.819-0.877l1.058-2.467c0,0,1.015,0.488,2.03,0.977c0.976,0.562,1.931,1.159,1.931,1.159
					L76.425,102.459z"/>
			</g>
			<g>
				<path fill="#8C8C8C" d="M82.036,107.64c0.108-0.092-2.69-3.013-2.747-2.951l1.801-1.989c0,0,0.208,0.189,0.521,0.473
					c0.325,0.272,0.707,0.686,1.082,1.107c0.378,0.416,0.756,0.834,1.039,1.146c0.254,0.338,0.423,0.564,0.423,0.564L82.036,107.64z
					"/>
			</g>
			<g>
				<path fill="#8C8C8C" d="M85.672,114.35c0,0-0.086-0.236-0.217-0.593c-0.142-0.351-0.271-0.843-0.514-1.287
					c-0.218-0.454-0.438-0.909-0.602-1.249c-0.082-0.172-0.15-0.312-0.198-0.413c-0.058-0.095-0.091-0.148-0.091-0.148l2.349-1.3
					c0,0,0.037,0.061,0.101,0.166c0.053,0.109,0.13,0.271,0.223,0.461c0.183,0.377,0.427,0.886,0.673,1.393
					c0.267,0.498,0.417,1.047,0.574,1.438c0.146,0.396,0.242,0.662,0.242,0.662L85.672,114.35z"/>
			</g>
			<g>
				<path fill="#8C8C8C" d="M86.947,121.878c0,0-0.052-1.007-0.103-2.017c-0.002-0.254-0.033-0.505-0.076-0.736
					c-0.036-0.235-0.07-0.453-0.099-0.641c-0.057-0.373-0.095-0.623-0.095-0.623l2.645-0.461c0,0,0.042,0.277,0.106,0.694
					c0.032,0.208,0.069,0.452,0.108,0.714c0.046,0.26,0.079,0.539,0.085,0.823c0.057,1.122,0.113,2.246,0.113,2.246H86.947z"/>
			</g>
		</g>
	</g>
	<g>
		<g>
			<circle fill="#545454" cx="63.74" cy="121.878" r="21.61"/>
		</g>
	</g>
	<g>
		<g>
			<circle fill="#F6C634" cx="63.74" cy="121.878" r="17.043"/>
		</g>
	</g>
	<g>
		<g>
			<circle fill="#E5AB28" cx="63.74" cy="121.878" r="9.491"/>
		</g>
	</g>
	<path fill="#F6C634" d="M153.006,123.351H99.882V82.834h41.024c6.683,0,12.1,5.416,12.1,12.099V123.351z"/>
	<g>
		<circle fill="#8C8C8C" cx="143.816" cy="127.893" r="19.382"/>
		<g>
			<g>
				<path fill="#8C8C8C" d="M160.288,135.225c0,0,0.029-0.055,0.075-0.152c0.053-0.096,0.111-0.24,0.169-0.417
					c0.13-0.351,0.301-0.815,0.472-1.283c0.146-0.474,0.252-0.959,0.351-1.319c0.048-0.18,0.088-0.33,0.112-0.437
					c0.031-0.103,0.035-0.165,0.035-0.165l2.633,0.525c0,0-0.007,0.071-0.04,0.192c-0.031,0.121-0.075,0.294-0.127,0.503
					c-0.11,0.412-0.238,0.972-0.404,1.516c-0.196,0.536-0.393,1.072-0.543,1.477c-0.068,0.203-0.136,0.367-0.195,0.479
					c-0.055,0.112-0.084,0.177-0.084,0.177L160.288,135.225z"/>
			</g>
			<g>
				<path fill="#8C8C8C" d="M155.873,141.285c0,0,0.186-0.169,0.459-0.419c0.296-0.233,0.601-0.632,0.942-0.991
					c0.165-0.184,0.338-0.365,0.488-0.542c0.14-0.188,0.271-0.36,0.382-0.511c0.223-0.297,0.373-0.498,0.373-0.498l2.186,1.558
					c0,0-0.171,0.228-0.425,0.569c-0.13,0.173-0.279,0.373-0.44,0.586c-0.173,0.205-0.369,0.411-0.561,0.623
					c-0.391,0.416-0.747,0.866-1.079,1.137c-0.318,0.289-0.529,0.482-0.529,0.482L155.873,141.285z"/>
			</g>
			<g>
				<path fill="#8C8C8C" d="M149.389,145.046c0,0,0.233-0.088,0.584-0.215c0.345-0.138,0.828-0.271,1.267-0.509
					c0.443-0.219,0.898-0.428,1.228-0.599c0.317-0.192,0.532-0.323,0.532-0.323l1.368,2.309c0,0-0.244,0.148-0.611,0.369
					c-0.379,0.2-0.896,0.44-1.409,0.69c-0.507,0.269-1.06,0.43-1.456,0.586c-0.402,0.146-0.672,0.244-0.672,0.244L149.389,145.046z"
					/>
			</g>
			<g>
				<path fill="#8C8C8C" d="M141.929,145.834c0,0,0.994,0.059,1.987,0.094c0.496-0.025,0.995-0.05,1.366-0.07
					c0.373-0.004,0.617-0.055,0.617-0.055l0.307,2.668c0,0-0.279,0.052-0.709,0.062c-0.428,0.023-0.997,0.05-1.566,0.079
					c-1.141-0.033-2.279-0.108-2.279-0.108L141.929,145.834z"/>
			</g>
			<g>
				<path fill="#8C8C8C" d="M134.806,143.504c0,0,0.053,0.034,0.146,0.088c0.096,0.053,0.219,0.15,0.39,0.224
					c0.336,0.163,0.782,0.378,1.232,0.593c0.446,0.217,0.929,0.352,1.272,0.492c0.351,0.129,0.584,0.215,0.584,0.215l-0.803,2.561
					c0,0-0.268-0.098-0.67-0.244c-0.398-0.156-0.949-0.318-1.464-0.564c-0.516-0.248-1.03-0.495-1.416-0.683
					c-0.196-0.085-0.34-0.194-0.448-0.255c-0.106-0.064-0.169-0.102-0.169-0.102L134.806,143.504z"/>
			</g>
			<g>
				<path fill="#8C8C8C" d="M129.235,138.484c0,0,0.149,0.2,0.373,0.498c0.206,0.311,0.546,0.674,0.884,1.039
					c0.33,0.373,0.666,0.74,0.956,0.979c0.275,0.25,0.458,0.417,0.458,0.417l-1.772,2.015c0,0-0.213-0.191-0.529-0.48
					c-0.33-0.274-0.718-0.693-1.098-1.121c-0.386-0.42-0.771-0.841-1.014-1.195c-0.256-0.342-0.428-0.572-0.428-0.572
					L129.235,138.484z"/>
			</g>
			<g>
				<path fill="#8C8C8C" d="M126.171,131.646c0,0,0.062,0.239,0.156,0.601c0.108,0.354,0.184,0.854,0.372,1.314
					c0.169,0.467,0.34,0.932,0.467,1.282c0.15,0.342,0.265,0.562,0.265,0.562l-2.44,1.119c0,0-0.131-0.252-0.3-0.646
					c-0.148-0.402-0.345-0.936-0.54-1.475c-0.211-0.531-0.307-1.099-0.428-1.51c-0.106-0.415-0.176-0.692-0.176-0.692
					L126.171,131.646z"/>
			</g>
			<g>
				<path fill="#8C8C8C" d="M126.171,124.141c0,0-0.019,0.059-0.037,0.168c-0.015,0.105-0.038,0.26-0.064,0.443
					c-0.057,0.369-0.13,0.861-0.203,1.352c-0.024,0.496-0.048,0.995-0.068,1.366c-0.009,0.188-0.021,0.343-0.021,0.45
					c0.006,0.109,0.008,0.172,0.008,0.172l-2.682,0.029c0,0-0.003-0.071-0.011-0.196c0-0.126,0.013-0.303,0.022-0.516
					c0.021-0.427,0.051-0.997,0.082-1.568c0.068-0.565,0.164-1.13,0.227-1.552c0.034-0.213,0.059-0.388,0.08-0.513
					c0.019-0.123,0.043-0.192,0.043-0.192L126.171,124.141z"/>
			</g>
			<g>
				<path fill="#8C8C8C" d="M129.235,117.303c0,0-0.148,0.197-0.374,0.496c-0.191,0.316-0.45,0.742-0.709,1.168
					c-0.279,0.41-0.448,0.885-0.626,1.214c-0.16,0.333-0.269,0.557-0.269,0.557l-2.463-1.065c0,0,0.123-0.257,0.309-0.643
					c0.2-0.38,0.4-0.918,0.72-1.396c0.296-0.485,0.592-0.974,0.817-1.339c0.254-0.344,0.425-0.574,0.425-0.574L129.235,117.303z"/>
			</g>
			<g>
				<path fill="#8C8C8C" d="M134.806,112.279c0,0-0.213,0.132-0.531,0.326c-0.159,0.096-0.345,0.206-0.545,0.327
					c-0.186,0.14-0.386,0.29-0.584,0.438c-0.392,0.305-0.812,0.577-1.072,0.846c-0.277,0.251-0.461,0.42-0.461,0.42l-1.818-1.975
					c0,0,0.213-0.192,0.529-0.48c0.303-0.305,0.778-0.623,1.231-0.972c0.229-0.171,0.456-0.34,0.673-0.501
					c0.228-0.139,0.44-0.269,0.624-0.381c0.365-0.222,0.609-0.371,0.609-0.371L134.806,112.279z"/>
			</g>
			<g>
				<path fill="#8C8C8C" d="M141.929,109.952c0,0-0.244,0.038-0.613,0.095c-0.367,0.066-0.863,0.107-1.346,0.227
					c-0.481,0.123-0.964,0.248-1.324,0.342c-0.182,0.038-0.325,0.096-0.428,0.134c-0.104,0.038-0.16,0.061-0.16,0.061l-0.857-2.544
					c0,0,0.066-0.023,0.184-0.068c0.116-0.043,0.283-0.109,0.494-0.156c0.415-0.105,0.968-0.249,1.521-0.391
					c0.555-0.135,1.126-0.188,1.548-0.263c0.423-0.063,0.705-0.105,0.705-0.105L141.929,109.952z"/>
			</g>
			<g>
				<path fill="#8C8C8C" d="M149.389,110.738c0,0-0.229-0.092-0.592-0.175c-0.363-0.092-0.845-0.215-1.322-0.34
					c-0.495-0.075-0.984-0.15-1.352-0.206c-0.186-0.029-0.338-0.053-0.444-0.069c-0.11-0.007-0.174-0.011-0.174-0.011l0.249-2.673
					c0,0,0.072,0.004,0.195,0.013c0.123,0.019,0.301,0.045,0.512,0.076c0.423,0.066,0.988,0.152,1.554,0.24
					c0.553,0.143,1.107,0.283,1.521,0.391c0.419,0.098,0.684,0.202,0.684,0.202L149.389,110.738z"/>
			</g>
			<g>
				<path fill="#8C8C8C" d="M155.873,114.501c0,0-0.184-0.167-0.461-0.417c-0.275-0.25-0.69-0.527-1.084-0.832
					c-0.387-0.317-0.822-0.557-1.137-0.753c-0.321-0.192-0.532-0.321-0.532-0.321l1.318-2.338c0,0,0.244,0.148,0.608,0.369
					c0.365,0.225,0.864,0.507,1.309,0.863c0.454,0.348,0.928,0.672,1.247,0.957c0.316,0.286,0.527,0.479,0.527,0.479
					L155.873,114.501z"/>
			</g>
			<g>
				<path fill="#8C8C8C" d="M160.288,120.561c0,0-0.105-0.226-0.269-0.56c-0.16-0.338-0.365-0.79-0.643-1.206
					c-0.267-0.416-0.498-0.861-0.728-1.154c-0.222-0.301-0.371-0.499-0.371-0.499l2.152-1.602c0,0,0.173,0.228,0.428,0.571
					c0.258,0.34,0.531,0.845,0.834,1.328c0.314,0.479,0.557,0.998,0.738,1.383c0.186,0.387,0.311,0.645,0.311,0.645L160.288,120.561
					z"/>
			</g>
			<g>
				<path fill="#8C8C8C" d="M161.857,127.893c0,0-0.013-0.25-0.031-0.621c-0.027-0.371-0.032-0.871-0.084-1.363
					c-0.075-0.492-0.15-0.982-0.206-1.352c-0.027-0.186-0.048-0.338-0.082-0.442c-0.026-0.106-0.044-0.165-0.044-0.165l2.62-0.584
					c0,0,0.019,0.068,0.048,0.189c0.038,0.119,0.064,0.297,0.096,0.508c0.065,0.423,0.15,0.988,0.236,1.553
					c0.062,0.566,0.07,1.139,0.098,1.564c0.021,0.428,0.033,0.713,0.033,0.713H161.857z"/>
			</g>
		</g>
	</g>
	<g>
		<g>
			<circle fill="#545454" cx="143.818" cy="127.893" r="17.083"/>
		</g>
	</g>
	<g>
		<g>
			<circle fill="#F6C634" cx="143.817" cy="127.893" r="13.706"/>
		</g>
	</g>
	<g>
		<g>
			<circle fill="#E5AB28" cx="143.817" cy="127.893" r="8.87"/>
		</g>
	</g>
	<path fill="#F6C634" d="M92.321,53.841H63.287c-1.687,0-3.167,1.125-3.617,2.75l-0.165,0.593h36.592
		c-0.052-0.2-0.104-0.392-0.154-0.578C95.501,54.971,94.015,53.841,92.321,53.841z"/>
	<path fill="#E5AB28" d="M96.097,57.183H59.505L49.177,94.369l16.214-4.373c-5.453-0.185-10.386,0.752-10.386,0.752l7.887-30.717
		h14.062v33.377c-2.62-2.296-6.765-3.156-10.751-3.375l18.092,8.963l-2.706-3.521V60.031h10.633l5.65,22.743v20.32h-9.872
		l5.917,14.911v2.776h8.161V82.834C102.077,82.834,98.114,64.816,96.097,57.183z"/>
	<g>
		
			<path fill="#F6C634" stroke="#F6C634" stroke-width="3" stroke-linecap="round" stroke-linejoin="round" stroke-miterlimit="10" d="
			M63.74,92.688c15.695,0,28.419,12.725,28.419,28.419c0,0.14-0.009,0.275-0.01,0.413c1.73-0.945,3.46-1.888,5.191-2.832
			c-1.244-17.48-15.806-31.275-33.6-31.275c-11.856,0-22.274,6.129-28.28,15.385c0.682,2.458,1.364,4.917,2.044,7.375
			C41.789,99.905,51.92,92.688,63.74,92.688z"/>
	</g>
	
		<polyline fill="none" stroke="#7C7C7C" stroke-width="3" stroke-linecap="round" stroke-linejoin="round" stroke-miterlimit="10" points="
		108.933,97.328 114.638,97.328 114.638,59.96 114.638,51.388 111.24,51.388 	"/>
	<rect x="122.206" y="82.834" fill="#E5AB28" width="3.667" height="21.633"/>
	<rect x="128.986" y="82.834" fill="#E5AB28" width="3.667" height="21.633"/>
	<rect x="135.768" y="82.834" fill="#E5AB28" width="3.666" height="21.633"/>
	<path fill="#E5AB28" d="M116.131,93.523h-2.987c-1.053,0-1.903-0.853-1.903-1.903V70.615c0-1.051,0.851-1.902,1.903-1.902h2.987
		c1.051,0,1.902,0.851,1.902,1.902V91.62C118.033,92.671,117.182,93.523,116.131,93.523z"/>
</g>
</svg>
